<svg width="136" height="32" viewBox="0 0 136 32" fill="none" xmlns="http://www.w3.org/2000/svg">
<path d="M132.743 12.031C133.443 11.847 134.166 12.008 134.889 11.939C135.115 11.916 135.364 11.916 135.59 11.916V26.7083C134.822 26.7083 134.053 26.6853 133.308 26.6853C133.127 26.6853 132.923 26.7773 132.743 26.5932C133.127 26.2712 133.579 26.4092 133.986 26.3862C135.387 26.3632 135.274 26.5012 135.274 25.0289V12.7672C135.296 12.3531 135.07 12.1921 134.709 12.1921H133.466C133.195 12.2151 132.923 12.2611 132.743 12.031Z" fill="#373737"/>
<path d="M135.477 12.5141C135.477 12.1691 135.387 12.054 135.048 12.054C134.279 12.077 133.511 12.054 132.743 12.031C132.584 12.1921 132.675 12.4221 132.675 12.6062C132.675 14.2165 132.675 15.8269 132.652 17.4372C132.652 17.5983 132.743 17.7823 132.539 17.9203C132.291 17.1842 131.748 16.563 131.025 16.287C129.353 15.5968 127.432 16.287 126.573 17.8973C126.234 18.5645 126.031 19.2776 125.94 20.0138C125.759 21.7392 125.759 23.4645 126.596 25.0519C127.59 26.9843 130.257 27.5364 131.793 26.1331C132.132 25.7881 132.404 25.374 132.584 24.9139C132.72 25.535 132.539 26.0871 132.72 26.5932C133.488 26.5932 134.257 26.5702 135.025 26.5702C135.364 26.5702 135.477 26.4552 135.454 26.1331C135.454 21.6011 135.454 17.0461 135.477 12.5141ZM132.652 22.6594C132.652 23.9246 131.929 24.5918 130.663 24.4998C129.782 24.4768 129.036 23.8096 128.923 22.9124C128.765 21.9692 128.765 21.003 128.901 20.0368C129.127 18.4955 130.822 17.8283 132.065 18.7715C132.426 19.0016 132.63 19.4157 132.63 19.8297V21.4401C132.652 21.8542 132.652 22.2683 132.652 22.6594ZM87.8378 19.7837C87.8604 20.4049 87.7926 21.072 87.9282 21.7622C88.1768 23.1195 88.9452 23.9477 90.2107 24.1777C91.4763 24.4078 92.6062 23.8786 93.2164 22.6824C93.4424 22.2453 93.578 22.1993 93.9622 22.4523C94.482 22.7974 95.0018 23.0965 95.5441 23.3725C95.8153 23.5106 95.8153 23.6486 95.6797 23.9246C94.5498 26.1561 92.222 27.2604 89.5327 26.8233C87.3632 26.4552 85.8943 25.2589 85.1937 23.1425C84.4027 20.6809 84.4027 18.1964 85.4649 15.8269C86.4592 13.6414 88.5158 12.4911 90.8661 12.5832C92.9452 12.6522 94.5498 13.4573 95.5667 15.3668C95.7475 15.6888 95.7927 15.8959 95.3634 16.0799C94.7532 16.356 94.1882 16.7011 93.578 17.0231C93.3972 17.1152 93.239 17.2302 93.126 16.9311C92.6062 15.3668 91.0921 15.0907 89.8265 15.4128C88.561 15.7349 87.8152 16.8621 87.7926 18.3804C87.8152 18.7945 87.8378 19.2546 87.8378 19.7837ZM76.3348 15.0447C74.9788 17.8283 73.4647 20.5199 71.9505 23.3265C70.459 20.5199 68.9448 17.8283 67.4533 15.0677V26.0411C67.4533 26.4782 67.4081 26.6852 66.8883 26.6622C65.8261 26.6162 65.8261 26.6622 65.8261 25.558V13.3423C65.8261 12.9052 65.9165 12.7672 66.3685 12.7672C67.973 12.7902 67.973 12.7672 68.7414 14.2165L71.8601 20.1518L71.9053 20.1978C72.1087 20.1978 72.1087 19.9908 72.1765 19.8758L75.6342 13.3193C75.8376 12.9512 76.041 12.7212 76.493 12.7902C76.9901 12.8592 77.6455 12.5832 77.9619 12.9052C78.2783 13.2273 78.0523 13.8944 78.0523 14.4006C78.0523 18.2654 78.0523 22.1303 78.0749 26.0181C78.0749 26.5242 77.9845 26.7083 77.4421 26.6852C76.4478 26.6392 76.4478 26.6852 76.4478 25.673V15.1137L76.3348 15.0447ZM60.6283 19.5077C60.5831 19.3926 60.3119 19.5307 60.4023 19.2776C60.9221 19.1166 61.3741 18.8175 61.713 18.4034C62.7978 17.0231 62.4136 14.4466 60.9673 13.4574C60.2441 12.9973 59.4079 12.7672 58.5491 12.7902C56.8994 12.7902 55.2496 12.8132 53.5773 12.7672C53.1479 12.7672 53.0575 12.9052 53.0575 13.3193C53.0801 15.9419 53.0575 18.5645 53.0575 21.187V26.1791C53.0575 26.4322 53.0123 26.6622 53.3965 26.6622C55.453 26.6392 57.5322 26.6852 59.5887 26.5932C61.2159 26.5242 62.4588 25.1439 62.7074 23.3495C63.0012 21.4861 62.3006 20.1748 60.6283 19.5077ZM54.7299 14.6306C54.7299 14.3776 54.8203 14.2855 55.0689 14.2855C56.3344 14.3085 57.5774 14.2625 58.8429 14.3085C59.8373 14.3545 60.4249 14.9297 60.5605 15.9419C60.6057 16.333 60.6057 16.7471 60.5831 17.1382C60.4701 18.0814 59.8373 18.6795 58.8881 18.7485C58.2328 18.7945 57.6 18.7485 56.9446 18.7485V18.7715H55.1141C54.8429 18.7715 54.7299 18.7025 54.7299 18.4034V14.6306ZM61.0351 23.2805C60.9447 24.3847 60.3345 25.0979 59.2497 25.1439C57.8486 25.2129 56.47 25.1669 55.0689 25.1899C54.7977 25.1899 54.7299 25.0749 54.7525 24.8218C54.7751 24.1087 54.7525 23.3725 54.7525 22.6594C54.7525 21.9692 54.7751 21.3021 54.7525 20.6119C54.7525 20.3129 54.8203 20.1978 55.1367 20.1978C56.4022 20.2208 57.6904 20.1748 58.9785 20.2208C60.2441 20.2438 60.9447 20.934 61.0577 22.2453C61.0577 22.5903 61.0577 22.9354 61.0351 23.2805ZM112.313 19.1396C111.68 17.2072 110.143 16.0799 108.087 16.0109C105.827 15.9419 104.222 16.9541 103.476 18.9325C103.002 20.2668 102.912 21.6932 103.205 23.0735C103.725 25.696 106.234 27.3984 108.81 26.8693C109.443 26.7313 110.053 26.4782 110.573 26.1101C112.2 24.9829 112.584 23.3035 112.652 21.4401C112.674 20.6579 112.539 19.8988 112.313 19.1396ZM109.601 23.1195C109.443 24.0627 108.787 24.5918 107.816 24.5918C106.889 24.5918 106.256 24.0627 106.121 23.0965C105.985 21.9922 105.985 20.888 106.121 19.8067C106.256 18.8405 106.957 18.3114 107.906 18.3344C108.833 18.3574 109.443 18.8865 109.601 19.8527C109.714 20.4279 109.646 21.003 109.669 21.7852C109.691 22.1993 109.669 22.6594 109.601 23.1195ZM120.788 24.9829C120.313 25.8111 119.771 26.5012 118.821 26.7543C116.878 27.2834 115.296 26.3862 114.799 24.4078C114.663 23.8326 114.618 23.2575 114.618 22.6824V16.7241C114.618 16.356 114.663 16.195 115.093 16.218C115.748 16.264 116.381 16.264 117.036 16.218C117.42 16.195 117.533 16.333 117.511 16.7241C117.488 18.5415 117.511 20.3359 117.511 22.1302C117.511 22.3603 117.511 22.6134 117.533 22.8434C117.578 23.9246 118.121 24.5458 119.07 24.4998C120.042 24.4308 120.855 23.9016 120.833 22.7514C120.788 20.7499 120.833 18.7255 120.81 16.7471C120.81 16.31 120.923 16.195 121.33 16.218C122.008 16.264 122.663 16.241 123.341 16.218C123.635 16.218 123.703 16.31 123.703 16.586V26.2712C123.703 26.5932 123.59 26.6622 123.296 26.6622C122.618 26.6392 121.918 26.6392 121.24 26.6622C120.946 26.6622 120.81 26.5702 120.833 26.2712C120.81 25.8341 120.788 25.42 120.788 24.9829ZM100.674 18.1964C100.674 20.0828 100.697 21.9692 100.652 23.8556C100.652 24.3157 100.787 24.4768 101.217 24.4078C101.849 24.2927 102.075 24.5688 101.962 25.1669V25.466C101.962 26.7082 101.962 26.7083 100.765 26.6622C100.403 26.6622 100.064 26.6392 99.7024 26.5702C98.7532 26.4092 98.0075 25.65 97.8719 24.6838C97.8041 24.2927 97.7589 23.9016 97.7589 23.4875C97.7589 19.8528 97.7589 16.195 97.7363 12.5602C97.7363 12.1001 97.8267 11.916 98.3013 11.962C98.9114 12.008 99.5216 12.008 100.132 11.962C100.516 11.939 100.674 12.054 100.652 12.4911C100.674 14.4006 100.674 16.287 100.674 18.1964ZM48.1987 19.7607V24.7988C48.1987 25.1669 48.2891 25.3049 48.6733 25.2589C48.8993 25.2359 49.1478 25.2819 49.3738 25.2589C49.984 25.1669 50.1648 25.397 50.1422 26.0181C50.1196 26.5472 50.0292 26.7083 49.4868 26.6852C48.0631 26.6392 46.6167 26.6622 45.1704 26.6852C44.7862 26.6852 44.5828 26.5932 44.6506 26.1561C44.6732 26.0181 44.6732 25.8801 44.6506 25.742C44.6054 25.397 44.6958 25.2359 45.08 25.2589C45.4416 25.3049 45.7806 25.2359 46.1421 25.2819C46.5037 25.3049 46.5715 25.1669 46.5715 24.8218V14.6076C46.5715 14.3085 46.5037 14.1705 46.1873 14.1935C45.9161 14.2165 45.6224 14.1705 45.3738 14.1935C44.8088 14.2855 44.6506 14.1015 44.6506 13.5034C44.6506 12.9052 44.7862 12.7672 45.3738 12.7902C46.7975 12.8362 48.1987 12.8132 49.6224 12.7902C50.0292 12.7902 50.21 12.8822 50.1422 13.3193C50.1196 13.5034 50.1196 13.6874 50.1422 13.8714C50.1648 14.1475 50.0518 14.2165 49.8032 14.2165C49.4416 14.1935 49.0575 14.2395 48.6733 14.1935C48.2891 14.1475 48.1987 14.2855 48.2213 14.6536C48.1987 16.356 48.1987 18.0584 48.1987 19.7607Z" fill="black"/>
<path d="M25.9137 32H8.64346C4.42842 32 1.00001 28.5705 1.00001 24.3565C1.00001 20.8401 3.43344 17.7582 6.82508 16.9304C7.93706 11.7203 12.5766 7.79944 18.1142 7.79944C22.2669 7.79944 26.102 10.0357 28.1543 13.6423C32.2123 14.6485 35.2295 18.3209 35.2295 22.6852C35.2284 27.8206 31.049 32 25.9137 32ZM6.67355 17.8028C3.81784 18.6607 1.80224 21.3281 1.80224 24.3565C1.80224 28.1292 4.87076 31.1978 8.64346 31.1978H25.9137C30.6078 31.1978 34.4262 27.3794 34.4262 22.6852C34.4262 17.9911 30.6078 14.1727 25.9137 14.1727C23.3844 14.1727 21.0045 15.2858 19.3811 17.2267C19.2384 17.3983 18.9855 17.4184 18.8162 17.278C18.6468 17.1354 18.6234 16.8824 18.766 16.7131C20.5421 14.5894 23.1471 13.3716 25.9148 13.3716C26.3137 13.3716 26.707 13.3961 27.0936 13.4451C25.1137 10.4379 21.7443 8.60167 18.1142 8.60167C12.1922 8.60167 7.37327 13.4206 7.37327 19.3426C7.37327 21.2267 7.86909 23.0819 8.80614 24.7053C8.91644 24.8969 8.85071 25.1432 8.65906 25.2524C8.46519 25.3649 8.22118 25.2992 8.11087 25.1053C7.10363 23.3604 6.57104 21.3682 6.57104 19.3426C6.57104 18.8201 6.60558 18.3064 6.67355 17.8028ZM31.5148 12.3621C31.3766 12.3621 31.2418 12.2908 31.1671 12.1616C31.0557 11.9699 31.1215 11.7237 31.3142 11.6134L34.6268 9.70139C34.8184 9.59331 35.0646 9.65571 35.1738 9.84847C35.2852 10.0401 35.2195 10.2863 35.0268 10.3967L31.7142 12.3086C31.6518 12.3454 31.5839 12.3621 31.5148 12.3621ZM4.71254 12.3621C4.64458 12.3621 4.5755 12.3454 4.51199 12.3086L1.20057 10.3978C1.00892 10.2864 0.943186 10.0412 1.05349 9.84958C1.16491 9.65905 1.40781 9.59109 1.60168 9.70251L4.91422 11.6145C5.10586 11.7259 5.1716 11.971 5.06129 12.1627C4.98664 12.2908 4.85182 12.3621 4.71254 12.3621ZM10.3783 6.69972C10.239 6.69972 10.1042 6.62841 10.0307 6.49916L8.11756 3.18663C8.00725 2.99499 8.07299 2.74986 8.26463 2.63955C8.45628 2.52702 8.70252 2.59499 8.81282 2.78552L10.7248 6.09805C10.8351 6.28969 10.7694 6.53593 10.5777 6.64624C10.5153 6.68301 10.4462 6.69972 10.3783 6.69972ZM25.8502 6.69972C25.7811 6.69972 25.7131 6.68301 25.6496 6.64624C25.4568 6.53482 25.3922 6.28969 25.5025 6.09805L27.4145 2.78552C27.5259 2.59387 27.7722 2.53036 27.9616 2.63844C28.1543 2.74986 28.219 2.99499 28.1086 3.18663L26.1967 6.49916C26.1231 6.6273 25.9883 6.69972 25.8502 6.69972ZM18.1142 4.62618C17.8925 4.62618 17.7131 4.4468 17.7131 4.22507V0.401114C17.7131 0.179387 17.8925 0 18.1142 0C18.3359 0 18.5153 0.179387 18.5153 0.401114V4.22618C18.5153 4.4468 18.3359 4.62618 18.1142 4.62618Z" fill="black"/>
</svg>
