<svg width="32" height="32" viewBox="0 0 32 32" fill="none" xmlns="http://www.w3.org/2000/svg">
<path d="M23.2909 30.9157H7.14561C3.20511 30.9157 9.67733e-06 27.7095 9.67733e-06 23.7701C9.67733e-06 20.4827 2.27493 17.6015 5.44566 16.8276C6.48521 11.9569 10.8226 8.29143 15.9995 8.29143C19.8816 8.29143 23.4669 10.382 25.3856 13.7537C29.1793 14.6943 32 18.1276 32 22.2076C31.999 27.0085 28.0918 30.9157 23.2909 30.9157ZM5.304 17.6432C2.6343 18.4453 0.749985 20.9389 0.749985 23.7701C0.749985 27.2971 3.61864 30.1657 7.14561 30.1657H23.2909C27.6793 30.1657 31.249 26.596 31.249 22.2076C31.249 17.8192 27.6793 14.2496 23.2909 14.2496C20.9264 14.2496 18.7015 15.2902 17.1838 17.1047C17.0505 17.2651 16.814 17.2838 16.6557 17.1526C16.4974 17.0193 16.4755 16.7828 16.6088 16.6245C18.2692 14.6391 20.7045 13.5006 23.292 13.5006C23.6649 13.5006 24.0326 13.5235 24.394 13.5694C22.543 10.758 19.3931 9.0414 15.9995 9.0414C10.4632 9.0414 5.95815 13.5465 5.95815 19.0827C5.95815 20.8441 6.42167 22.5785 7.29769 24.0961C7.40081 24.2753 7.33935 24.5055 7.16019 24.6076C6.97895 24.7128 6.75083 24.6513 6.64771 24.4701C5.70607 22.8389 5.20817 20.9764 5.20817 19.0827C5.20817 18.5942 5.24046 18.114 5.304 17.6432ZM28.5272 12.5569C28.398 12.5569 28.272 12.4902 28.2022 12.3694C28.098 12.1903 28.1595 11.9601 28.3397 11.8569L31.4365 10.0695C31.6156 9.96845 31.8458 10.0268 31.9479 10.207C32.0521 10.3861 31.9906 10.6163 31.8104 10.7195L28.7136 12.5069C28.6553 12.5413 28.5918 12.5569 28.5272 12.5569ZM3.47073 12.5569C3.40719 12.5569 3.34261 12.5413 3.28324 12.5069L0.187504 10.7205C0.00834273 10.6164 -0.0531135 10.3872 0.0500081 10.208C0.154171 10.0299 0.381247 9.96637 0.562491 10.0705L3.65926 11.858C3.83842 11.9621 3.89988 12.1913 3.79676 12.3705C3.72697 12.4902 3.60093 12.5569 3.47073 12.5569ZM8.76743 7.26334C8.63723 7.26334 8.51119 7.19667 8.44244 7.07584L6.65396 3.97907C6.55084 3.79991 6.61229 3.57075 6.79145 3.46763C6.97061 3.36242 7.20081 3.42596 7.30394 3.60408L9.09138 6.70085C9.1945 6.88002 9.13304 7.11022 8.95388 7.21334C8.89555 7.24771 8.83097 7.26334 8.76743 7.26334ZM23.2315 7.26334C23.167 7.26334 23.1034 7.24771 23.044 7.21334C22.8638 7.10917 22.8034 6.88002 22.9065 6.70085L24.694 3.60408C24.7982 3.42492 25.0284 3.36555 25.2054 3.46659C25.3856 3.57075 25.446 3.79991 25.3429 3.97907L23.5555 7.07584C23.4867 7.19563 23.3607 7.26334 23.2315 7.26334ZM15.9995 5.32486C15.7922 5.32486 15.6245 5.15716 15.6245 4.94987V1.37499C15.6245 1.1677 15.7922 1 15.9995 1C16.2068 1 16.3745 1.1677 16.3745 1.37499V4.95091C16.3745 5.15716 16.2068 5.32486 15.9995 5.32486Z" fill="black"/>
</svg>
