<svg width="49" height="49" viewBox="0 0 49 49" fill="none" xmlns="http://www.w3.org/2000/svg">
<g clip-path="url(#clip0_4326_303901)">
<path d="M35.9364 46.8735H11.7184C5.80767 46.8735 1.00001 42.0643 1.00001 36.1551C1.00001 31.224 4.4124 26.9023 9.1685 25.7414C10.7278 18.4354 17.2339 12.9371 24.9992 12.9371C30.8225 12.9371 36.2004 16.073 39.0785 21.1306C44.7689 22.5415 49 27.6913 49 33.8115C48.9984 41.0128 43.1377 46.8735 35.9364 46.8735ZM8.956 26.9648C4.95145 28.1679 2.12498 31.9084 2.12498 36.1551C2.12498 41.4456 6.42796 45.7486 11.7184 45.7486H35.9364C42.519 45.7486 47.8735 40.3941 47.8735 33.8115C47.8735 27.2289 42.519 21.8743 35.9364 21.8743C32.3896 21.8743 29.0522 23.4352 26.7757 26.157C26.5757 26.3976 26.2211 26.4258 25.9836 26.2289C25.7461 26.0289 25.7133 25.6742 25.9133 25.4367C28.4038 22.4587 32.0568 20.7509 35.9379 20.7509C36.4973 20.7509 37.0488 20.7853 37.591 20.8541C34.8145 16.637 30.0897 14.0621 24.9992 14.0621C16.6948 14.0621 9.93722 20.8197 9.93722 29.1241C9.93722 31.7662 10.6325 34.3677 11.9465 36.6442C12.1012 36.9129 12.009 37.2582 11.7403 37.4113C11.4684 37.5691 11.1262 37.477 10.9716 37.2051C9.55911 34.7583 8.81226 31.9646 8.81226 29.1241C8.81226 28.3913 8.86069 27.671 8.956 26.9648ZM43.7908 19.3354C43.5971 19.3354 43.408 19.2354 43.3033 19.0541C43.1471 18.7854 43.2393 18.4401 43.5096 18.2854L48.1547 15.6042C48.4235 15.4527 48.7688 15.5402 48.9219 15.8105C49.0781 16.0792 48.9859 16.4245 48.7156 16.5792L44.0705 19.2604C43.983 19.3119 43.8877 19.3354 43.7908 19.3354ZM6.20609 19.3354C6.11078 19.3354 6.01391 19.3119 5.92485 19.2604L1.28126 16.5808C1.01251 16.4245 0.92033 16.0808 1.07501 15.812C1.23126 15.5449 1.57187 15.4496 1.84374 15.6058L6.4889 18.287C6.75764 18.4432 6.84982 18.7869 6.69514 19.0557C6.59046 19.2354 6.4014 19.3354 6.20609 19.3354ZM14.1511 11.395C13.9558 11.395 13.7668 11.295 13.6637 11.1138L10.9809 6.4686C10.8263 6.19986 10.9184 5.85612 11.1872 5.70144C11.4559 5.54363 11.8012 5.63894 11.9559 5.90612L14.6371 10.5513C14.7917 10.82 14.6996 11.1653 14.4308 11.32C14.3433 11.3716 14.2465 11.395 14.1511 11.395ZM35.8473 11.395C35.7504 11.395 35.6551 11.3716 35.5661 11.32C35.2958 11.1638 35.2051 10.82 35.3598 10.5513L38.041 5.90612C38.1972 5.63738 38.5425 5.54832 38.8081 5.69988C39.0785 5.85612 39.1691 6.19986 39.0144 6.4686L36.3332 11.1138C36.2301 11.2934 36.0411 11.395 35.8473 11.395ZM24.9992 8.48729C24.6883 8.48729 24.4367 8.23573 24.4367 7.92481V2.56248C24.4367 2.25155 24.6883 2 24.9992 2C25.3102 2 25.5617 2.25155 25.5617 2.56248V7.92637C25.5617 8.23573 25.3102 8.48729 24.9992 8.48729Z" fill="black"/>
</g>
<defs>
<clipPath id="clip0_4326_303901">
<rect width="48" height="48" fill="white" transform="translate(0.600098 0.800781)"/>
</clipPath>
</defs>
</svg>
