<svg width="20" height="20" viewBox="0 0 20 20" fill="none" xmlns="http://www.w3.org/2000/svg">
<path d="M14.5568 19.6973H4.466C2.0032 19.6973 6.04833e-06 17.6935 6.04833e-06 15.2313C6.04833e-06 13.1767 1.42183 11.376 3.40354 10.8923C4.05326 7.84808 6.76411 5.55714 9.99968 5.55714C12.426 5.55714 14.6668 6.86374 15.866 8.97109C18.237 9.55896 20 11.7047 20 14.2548C19.9993 17.2553 17.5574 19.6973 14.5568 19.6973ZM3.315 11.402C1.64644 11.9033 0.468741 13.4618 0.468741 15.2313C0.468741 17.4357 2.26165 19.2286 4.466 19.2286H14.5568C17.2996 19.2286 19.5306 16.9975 19.5306 14.2548C19.5306 11.512 17.2996 9.28098 14.5568 9.28098C13.079 9.28098 11.6884 9.93135 10.7399 11.0654C10.6566 11.1657 10.5088 11.1774 10.4098 11.0954C10.3109 11.012 10.2972 10.8643 10.3805 10.7653C11.4182 9.52446 12.9403 8.81289 14.5575 8.81289C14.7905 8.81289 15.0203 8.82722 15.2462 8.85586C14.0894 7.09876 12.1207 6.02588 9.99968 6.02588C6.5395 6.02588 3.72384 8.84154 3.72384 12.3017C3.72384 13.4026 4.01355 14.4865 4.56105 15.4351C4.6255 15.547 4.58709 15.6909 4.47512 15.7547C4.36184 15.8205 4.21927 15.7821 4.15482 15.6688C3.56629 14.6493 3.25511 13.4853 3.25511 12.3017C3.25511 11.9964 3.27529 11.6963 3.315 11.402ZM17.8295 8.22307C17.7488 8.22307 17.67 8.1814 17.6264 8.10589C17.5613 7.99391 17.5997 7.85003 17.7123 7.78558L19.6478 6.66843C19.7598 6.60528 19.9036 6.64174 19.9674 6.75437C20.0326 6.86634 19.9941 7.01022 19.8815 7.07467L17.946 8.19182C17.9096 8.2133 17.8699 8.22307 17.8295 8.22307ZM2.16921 8.22307C2.12949 8.22307 2.08913 8.2133 2.05202 8.19182L0.11719 7.07532C0.00521421 7.01022 -0.033196 6.86699 0.031255 6.75502C0.0963571 6.64369 0.238279 6.60398 0.351557 6.66908L2.28704 7.78623C2.39902 7.85134 2.43743 7.99456 2.37297 8.10654C2.32936 8.1814 2.25058 8.22307 2.16921 8.22307ZM5.47964 4.91458C5.39827 4.91458 5.31949 4.87292 5.27652 4.7974L4.15872 2.86192C4.09427 2.74994 4.13268 2.60672 4.24466 2.54227C4.35663 2.47651 4.50051 2.51623 4.56496 2.62755L5.68211 4.56303C5.74656 4.67501 5.70815 4.81888 5.59618 4.88334C5.55972 4.90482 5.51936 4.91458 5.47964 4.91458ZM14.5197 4.91458C14.4793 4.91458 14.4396 4.90482 14.4025 4.88334C14.2899 4.81823 14.2521 4.67501 14.3166 4.56303L15.4337 2.62755C15.4988 2.51558 15.6427 2.47847 15.7534 2.54162C15.866 2.60672 15.9038 2.74994 15.8393 2.86192L14.7222 4.7974C14.6792 4.87227 14.6004 4.91458 14.5197 4.91458ZM9.99968 3.70304C9.87012 3.70304 9.76531 3.59822 9.76531 3.46867V1.23437C9.76531 1.10481 9.87012 1 9.99968 1C10.1292 1 10.234 1.10481 10.234 1.23437V3.46932C10.234 3.59822 10.1292 3.70304 9.99968 3.70304Z" fill="black"/>
</svg>
