<svg width="147" height="32" viewBox="0 0 147 32" fill="none" xmlns="http://www.w3.org/2000/svg">
<rect x="0.5" y="0.5" width="31" height="31" stroke="#7A7A7A" stroke-linecap="square"/>
<rect x="31.0527" width="1" height="43.9152" transform="rotate(45 31.0527 0)" fill="#7A7A7A"/>
<path d="M39.7412 12.3018V16H38.0117V6.04688H41.8193C42.9313 6.04688 43.8132 6.33626 44.4648 6.91504C45.1211 7.49382 45.4492 8.25944 45.4492 9.21191C45.4492 10.1872 45.1279 10.946 44.4854 11.4883C43.8473 12.0306 42.9518 12.3018 41.7988 12.3018H39.7412ZM39.7412 10.9141H41.8193C42.4346 10.9141 42.904 10.7705 43.2275 10.4834C43.5511 10.1917 43.7129 9.77246 43.7129 9.22559C43.7129 8.68783 43.5488 8.25944 43.2207 7.94043C42.8926 7.61686 42.4414 7.45052 41.8672 7.44141H39.7412V10.9141ZM48.5732 16H46.9121V5.5H48.5732V16ZM54.8076 16C54.7347 15.8587 54.6709 15.6286 54.6162 15.3096C54.0876 15.861 53.4404 16.1367 52.6748 16.1367C51.932 16.1367 51.3258 15.9248 50.8564 15.501C50.387 15.0771 50.1523 14.5531 50.1523 13.9287C50.1523 13.1403 50.444 12.5365 51.0273 12.1172C51.6152 11.6934 52.4538 11.4814 53.543 11.4814H54.5615V10.9961C54.5615 10.6133 54.4544 10.3079 54.2402 10.0801C54.026 9.84766 53.7002 9.73145 53.2627 9.73145C52.8844 9.73145 52.5745 9.82715 52.333 10.0186C52.0915 10.2054 51.9707 10.4447 51.9707 10.7363H50.3096C50.3096 10.3307 50.444 9.95247 50.7129 9.60156C50.9818 9.24609 51.3464 8.9681 51.8066 8.76758C52.2715 8.56706 52.7887 8.4668 53.3584 8.4668C54.2243 8.4668 54.9147 8.68555 55.4297 9.12305C55.9447 9.55599 56.209 10.1667 56.2227 10.9551V14.291C56.2227 14.9564 56.3161 15.4873 56.5029 15.8838V16H54.8076ZM52.9824 14.8037C53.3105 14.8037 53.6182 14.724 53.9053 14.5645C54.1969 14.4049 54.4157 14.1908 54.5615 13.9219V12.5273H53.666C53.0508 12.5273 52.5882 12.6344 52.2783 12.8486C51.9684 13.0628 51.8135 13.3659 51.8135 13.7578C51.8135 14.0768 51.9183 14.332 52.1279 14.5234C52.3421 14.7103 52.627 14.8037 52.9824 14.8037ZM61.001 14.8105C61.4157 14.8105 61.7598 14.6898 62.0332 14.4482C62.3066 14.2067 62.4525 13.9082 62.4707 13.5527H64.0361C64.0179 14.013 63.8743 14.4437 63.6055 14.8447C63.3366 15.2412 62.972 15.5557 62.5117 15.7881C62.0514 16.0205 61.5547 16.1367 61.0215 16.1367C59.987 16.1367 59.1667 15.8018 58.5605 15.1318C57.9544 14.4619 57.6514 13.5368 57.6514 12.3564V12.1855C57.6514 11.0599 57.9521 10.1598 58.5537 9.48535C59.1553 8.80632 59.9756 8.4668 61.0146 8.4668C61.8942 8.4668 62.6097 8.72428 63.1611 9.23926C63.7171 9.74967 64.0088 10.4219 64.0361 11.2559H62.4707C62.4525 10.832 62.3066 10.4834 62.0332 10.21C61.7643 9.93652 61.4202 9.7998 61.001 9.7998C60.4632 9.7998 60.0485 9.99577 59.7568 10.3877C59.4652 10.7751 59.3171 11.3652 59.3125 12.1582V12.4248C59.3125 13.2269 59.4561 13.8262 59.7432 14.2227C60.0348 14.6146 60.4541 14.8105 61.001 14.8105ZM68.5479 16.1367C67.4951 16.1367 66.6406 15.8063 65.9844 15.1455C65.3327 14.4801 65.0068 13.596 65.0068 12.4932V12.2881C65.0068 11.5498 65.1481 10.8913 65.4307 10.3125C65.7178 9.72917 66.1188 9.27572 66.6338 8.95215C67.1488 8.62858 67.723 8.4668 68.3564 8.4668C69.3636 8.4668 70.1406 8.78809 70.6875 9.43066C71.2389 10.0732 71.5146 10.9824 71.5146 12.1582V12.8281H66.6816C66.7318 13.4388 66.9346 13.9219 67.29 14.2773C67.6501 14.6328 68.1012 14.8105 68.6436 14.8105C69.4046 14.8105 70.0244 14.5029 70.5029 13.8877L71.3984 14.7422C71.1022 15.1842 70.7057 15.5283 70.209 15.7744C69.7168 16.016 69.1631 16.1367 68.5479 16.1367ZM68.3496 9.7998C67.8939 9.7998 67.5247 9.95931 67.2422 10.2783C66.9642 10.5973 66.7865 11.0417 66.709 11.6113H69.874V11.4883C69.8376 10.9323 69.6895 10.513 69.4297 10.2305C69.1699 9.94336 68.8099 9.7998 68.3496 9.7998ZM74.4473 9.41016C74.9896 8.78125 75.6755 8.4668 76.5049 8.4668C78.0817 8.4668 78.8815 9.36686 78.9043 11.167V16H77.2432V11.2285C77.2432 10.7181 77.1315 10.3581 76.9082 10.1484C76.6895 9.93424 76.3659 9.82715 75.9375 9.82715C75.2721 9.82715 74.7754 10.1234 74.4473 10.7158V16H72.7861V5.5H74.4473V9.41016ZM80.2783 12.2334C80.2783 11.5088 80.4219 10.8571 80.709 10.2783C80.9961 9.69499 81.3994 9.24837 81.9189 8.93848C82.4385 8.62402 83.0355 8.4668 83.71 8.4668C84.708 8.4668 85.5169 8.78809 86.1367 9.43066C86.7611 10.0732 87.0983 10.9255 87.1484 11.9873L87.1553 12.377C87.1553 13.1061 87.014 13.7578 86.7314 14.332C86.4535 14.9062 86.0524 15.3506 85.5283 15.665C85.0088 15.9795 84.4072 16.1367 83.7236 16.1367C82.68 16.1367 81.8438 15.7904 81.2148 15.0977C80.5905 14.4004 80.2783 13.473 80.2783 12.3154V12.2334ZM81.9395 12.377C81.9395 13.138 82.0967 13.735 82.4111 14.168C82.7256 14.5964 83.1631 14.8105 83.7236 14.8105C84.2842 14.8105 84.7194 14.5918 85.0293 14.1543C85.3438 13.7168 85.501 13.0765 85.501 12.2334C85.501 11.486 85.3392 10.8936 85.0156 10.4561C84.6966 10.0186 84.2614 9.7998 83.71 9.7998C83.1676 9.7998 82.737 10.0163 82.418 10.4492C82.099 10.8776 81.9395 11.5202 81.9395 12.377ZM90.3271 16H88.666V5.5H90.3271V16ZM91.8311 12.2471C91.8311 11.1077 92.0954 10.194 92.624 9.50586C93.1527 8.81315 93.8613 8.4668 94.75 8.4668C95.5339 8.4668 96.1673 8.74023 96.6504 9.28711V5.5H98.3115V16H96.8076L96.7256 15.2344C96.2288 15.8359 95.5658 16.1367 94.7363 16.1367C93.8704 16.1367 93.1686 15.7881 92.6309 15.0908C92.0977 14.3936 91.8311 13.4456 91.8311 12.2471ZM93.4922 12.3906C93.4922 13.1426 93.6357 13.7305 93.9229 14.1543C94.2145 14.5736 94.627 14.7832 95.1602 14.7832C95.8392 14.7832 96.3359 14.4801 96.6504 13.874V10.7158C96.3451 10.1234 95.8529 9.82715 95.1738 9.82715C94.6361 9.82715 94.2214 10.0413 93.9297 10.4697C93.638 10.8936 93.4922 11.5339 93.4922 12.3906ZM103.302 16.1367C102.249 16.1367 101.395 15.8063 100.738 15.1455C100.087 14.4801 99.7607 13.596 99.7607 12.4932V12.2881C99.7607 11.5498 99.902 10.8913 100.185 10.3125C100.472 9.72917 100.873 9.27572 101.388 8.95215C101.903 8.62858 102.477 8.4668 103.11 8.4668C104.118 8.4668 104.895 8.78809 105.441 9.43066C105.993 10.0732 106.269 10.9824 106.269 12.1582V12.8281H101.436C101.486 13.4388 101.688 13.9219 102.044 14.2773C102.404 14.6328 102.855 14.8105 103.397 14.8105C104.159 14.8105 104.778 14.5029 105.257 13.8877L106.152 14.7422C105.856 15.1842 105.46 15.5283 104.963 15.7744C104.471 16.016 103.917 16.1367 103.302 16.1367ZM103.104 9.7998C102.648 9.7998 102.279 9.95931 101.996 10.2783C101.718 10.5973 101.54 11.0417 101.463 11.6113H104.628V11.4883C104.591 10.9323 104.443 10.513 104.184 10.2305C103.924 9.94336 103.564 9.7998 103.104 9.7998ZM111.437 10.1211C111.218 10.0846 110.992 10.0664 110.76 10.0664C109.999 10.0664 109.486 10.3581 109.222 10.9414V16H107.561V8.60352H109.146L109.188 9.43066C109.589 8.78809 110.145 8.4668 110.855 8.4668C111.092 8.4668 111.288 8.4987 111.443 8.5625L111.437 10.1211ZM117.862 14.6191H122.381V16H116.133V6.04688H117.862V14.6191ZM123.235 12.2334C123.235 11.5088 123.379 10.8571 123.666 10.2783C123.953 9.69499 124.356 9.24837 124.876 8.93848C125.396 8.62402 125.993 8.4668 126.667 8.4668C127.665 8.4668 128.474 8.78809 129.094 9.43066C129.718 10.0732 130.055 10.9255 130.105 11.9873L130.112 12.377C130.112 13.1061 129.971 13.7578 129.688 14.332C129.41 14.9062 129.009 15.3506 128.485 15.665C127.966 15.9795 127.364 16.1367 126.681 16.1367C125.637 16.1367 124.801 15.7904 124.172 15.0977C123.548 14.4004 123.235 13.473 123.235 12.3154V12.2334ZM124.896 12.377C124.896 13.138 125.054 13.735 125.368 14.168C125.683 14.5964 126.12 14.8105 126.681 14.8105C127.241 14.8105 127.676 14.5918 127.986 14.1543C128.301 13.7168 128.458 13.0765 128.458 12.2334C128.458 11.486 128.296 10.8936 127.973 10.4561C127.654 10.0186 127.218 9.7998 126.667 9.7998C126.125 9.7998 125.694 10.0163 125.375 10.4492C125.056 10.8776 124.896 11.5202 124.896 12.377ZM131.227 12.2471C131.227 11.0986 131.495 10.1826 132.033 9.49902C132.576 8.81087 133.293 8.4668 134.187 8.4668C135.03 8.4668 135.693 8.76074 136.176 9.34863L136.251 8.60352H137.748V15.7744C137.748 16.7451 137.445 17.5107 136.839 18.0713C136.237 18.6318 135.424 18.9121 134.398 18.9121C133.856 18.9121 133.325 18.7982 132.806 18.5703C132.291 18.347 131.899 18.0531 131.63 17.6885L132.416 16.6904C132.926 17.2965 133.555 17.5996 134.303 17.5996C134.854 17.5996 135.289 17.4492 135.608 17.1484C135.927 16.8522 136.087 16.4147 136.087 15.8359V15.3369C135.608 15.8701 134.97 16.1367 134.173 16.1367C133.307 16.1367 132.598 15.7926 132.047 15.1045C131.5 14.4163 131.227 13.4639 131.227 12.2471ZM132.881 12.3906C132.881 13.1335 133.031 13.7191 133.332 14.1475C133.637 14.5713 134.059 14.7832 134.597 14.7832C135.267 14.7832 135.763 14.4961 136.087 13.9219V10.668C135.772 10.1074 135.28 9.82715 134.61 9.82715C134.063 9.82715 133.637 10.0436 133.332 10.4766C133.031 10.9095 132.881 11.5475 132.881 12.3906ZM139.149 12.2334C139.149 11.5088 139.293 10.8571 139.58 10.2783C139.867 9.69499 140.271 9.24837 140.79 8.93848C141.31 8.62402 141.907 8.4668 142.581 8.4668C143.579 8.4668 144.388 8.78809 145.008 9.43066C145.632 10.0732 145.969 10.9255 146.02 11.9873L146.026 12.377C146.026 13.1061 145.885 13.7578 145.603 14.332C145.325 14.9062 144.924 15.3506 144.399 15.665C143.88 15.9795 143.278 16.1367 142.595 16.1367C141.551 16.1367 140.715 15.7904 140.086 15.0977C139.462 14.4004 139.149 13.473 139.149 12.3154V12.2334ZM140.811 12.377C140.811 13.138 140.968 13.735 141.282 14.168C141.597 14.5964 142.034 14.8105 142.595 14.8105C143.155 14.8105 143.59 14.5918 143.9 14.1543C144.215 13.7168 144.372 13.0765 144.372 12.2334C144.372 11.486 144.21 10.8936 143.887 10.4561C143.568 10.0186 143.132 9.7998 142.581 9.7998C142.039 9.7998 141.608 10.0163 141.289 10.4492C140.97 10.8776 140.811 11.5202 140.811 12.377Z" fill="black"/>
</svg>
