<svg width="171" height="32" viewBox="0 0 171 32" fill="none" xmlns="http://www.w3.org/2000/svg">
<path fill-rule="evenodd" clip-rule="evenodd" d="M3.79785 7.67054C3.79785 11.8425 7.04271 15.2219 11.0651 15.2219C15.0726 15.2219 18.3324 11.8425 18.3324 7.67054C18.3324 3.49858 15.0876 0.119141 11.0651 0.119141C7.05766 0.119141 3.79785 3.49858 3.79785 7.67054ZM15.1922 7.67054C15.1922 10.0631 13.338 11.992 11.0651 11.992C8.79224 11.992 6.93804 10.0631 6.93804 7.67054C6.93804 5.27802 8.79224 3.34905 11.0651 3.34905C13.338 3.34905 15.1922 5.27802 15.1922 7.67054Z" fill="#FF8C00"/>
<path fill-rule="evenodd" clip-rule="evenodd" d="M16.4634 19.0202C16.4634 23.1921 19.7232 26.5716 23.7307 26.5716C27.7381 26.5716 30.998 23.1921 30.998 19.0202C30.998 14.8482 27.7381 11.4688 23.7307 11.4688C19.7082 11.4837 16.4634 14.8631 16.4634 19.0202ZM27.8428 19.0202C27.8428 21.4127 25.9886 23.3416 23.7157 23.3416C21.4428 23.3416 19.5886 21.4127 19.5886 19.0202C19.5886 16.6276 21.4428 14.6987 23.7157 14.6987C25.9886 14.6987 27.8428 16.6276 27.8428 19.0202Z" fill="#FF8C00"/>
<path fill-rule="evenodd" clip-rule="evenodd" d="M0.0595703 24.2838C0.0595703 28.4558 3.30443 31.8352 7.32686 31.8352C11.3343 31.8352 14.5942 28.4558 14.5942 24.2838C14.5942 20.1119 11.3343 16.7324 7.32686 16.7324C3.31938 16.7324 0.0595703 20.1119 0.0595703 24.2838ZM11.454 24.2838C11.454 26.6763 9.59976 28.6053 7.32686 28.6053C5.05396 28.6053 3.19976 26.6763 3.19976 24.2838C3.19976 21.8913 5.05396 19.9623 7.32686 19.9623C9.59976 19.9474 11.454 21.8763 11.454 24.2838Z" fill="#FF8C00"/>
<path fill-rule="evenodd" clip-rule="evenodd" d="M50.3326 29.2042C50.4372 28.5762 51.0653 28.2771 51.6933 28.2771C52.6503 28.2771 53.2933 27.9481 53.727 26.9014L54.5344 25.0322L49.6597 12.95C49.4055 12.307 49.6896 11.5892 50.3176 11.3051C50.9905 11.0061 51.7681 11.3201 52.0372 12.0079L55.9251 21.8322L59.8428 11.8883C60.097 11.2453 60.8148 10.9163 61.4727 11.1406C62.1756 11.3799 62.5344 12.1724 62.2503 12.8453L56.2241 27.5743C55.327 29.8023 53.7868 30.5949 51.7681 30.6248C51.6484 30.6248 51.469 30.6098 51.2746 30.5799C50.6466 30.5051 50.2428 29.907 50.3475 29.2939L50.3326 29.2042Z" fill="#364650"/>
<path fill-rule="evenodd" clip-rule="evenodd" d="M138.093 25.3151C133.682 25.3151 130.916 22.0403 130.916 18.0029C130.916 14.0104 133.682 10.7207 138.093 10.7207C142.534 10.7207 145.271 13.9955 145.271 18.0029C145.256 22.0254 142.534 25.3151 138.093 25.3151ZM138.093 22.6534C141.039 22.6534 142.654 20.4553 142.654 18.0029C142.654 15.5656 141.039 13.3824 138.093 13.3824C135.177 13.3824 133.532 15.5805 133.532 18.0029C133.532 20.4702 135.162 22.6534 138.093 22.6534Z" fill="#364650"/>
<path fill-rule="evenodd" clip-rule="evenodd" d="M82.8409 19.3487C83.3343 21.2179 84.8596 22.6684 87.2371 22.6684C87.7456 22.6684 88.3437 22.5039 88.867 22.2945C89.5998 22.0104 90.482 22.2945 90.796 23.0123C91.0502 23.5955 90.8708 24.2684 90.2876 24.5525C89.5399 24.9114 88.4334 25.3151 87.2371 25.3151C82.8259 25.3151 80.0596 22.0403 80.0596 18.0029C80.0596 14.0104 82.8259 10.7207 87.2371 10.7207C91.6783 10.7207 94.4147 13.9955 94.4147 18.0029C94.4147 18.7805 93.7269 19.3487 92.9493 19.3487H91.6334C91.6334 19.3487 91.6334 19.3487 91.6334 19.3338H82.8409V19.3487ZM91.6334 16.6871C91.1549 14.8329 89.6446 13.3674 87.2371 13.3674C84.8596 13.3674 83.3194 14.8179 82.8409 16.6871H91.6334Z" fill="#364650"/>
<path fill-rule="evenodd" clip-rule="evenodd" d="M108.755 23.7905V29.3083C108.755 30.026 108.172 30.6092 107.454 30.6092C106.736 30.6092 106.153 30.026 106.153 29.3083V12.0373C106.153 11.3195 106.736 10.7363 107.454 10.7363C108.172 10.7363 108.755 11.3195 108.755 12.0373V12.2466C109.936 11.3046 111.491 10.7363 113.315 10.7363C117.757 10.7363 120.493 14.0111 120.493 18.0186C120.493 22.041 117.757 25.3307 113.315 25.3307C111.476 25.3158 109.936 24.7475 108.755 23.7905ZM113.315 22.6541C116.261 22.6541 117.876 20.456 117.876 18.0036C117.876 15.5662 116.261 13.3831 113.315 13.3831C110.4 13.3831 108.755 15.5812 108.755 18.0036C108.755 20.4709 110.4 22.6541 113.315 22.6541Z" fill="#364650"/>
<path fill-rule="evenodd" clip-rule="evenodd" d="M67.0203 23.7905V29.3083C67.0203 30.026 66.4372 30.6092 65.7194 30.6092C65.0016 30.6092 64.4185 30.026 64.4185 29.3083V12.0373C64.4185 11.3195 65.0016 10.7363 65.7194 10.7363C66.4372 10.7363 67.0203 11.3195 67.0203 12.0373V12.2466C68.2016 11.3046 69.7568 10.7363 71.5811 10.7363C76.0222 10.7363 78.7586 14.0111 78.7586 18.0186C78.7586 22.041 76.0222 25.3307 71.5811 25.3307C69.7568 25.3158 68.2016 24.7475 67.0203 23.7905ZM71.5811 22.6541C74.5269 22.6541 76.1418 20.456 76.1418 18.0036C76.1418 15.5662 74.5269 13.3831 71.5811 13.3831C68.6652 13.3831 67.0203 15.5812 67.0203 18.0036C67.0203 20.4709 68.6652 22.6541 71.5811 22.6541Z" fill="#364650"/>
<path fill-rule="evenodd" clip-rule="evenodd" d="M153.734 25.3151C149.323 25.3151 146.557 22.0403 146.557 18.0029C146.557 14.0104 149.323 10.7207 153.734 10.7207C158.175 10.7207 160.912 13.9955 160.912 18.0029C160.912 22.0254 158.175 25.3151 153.734 25.3151ZM153.734 22.6534C156.68 22.6534 158.295 20.4553 158.295 18.0029C158.295 15.5656 156.68 13.3824 153.734 13.3824C150.818 13.3824 149.173 15.5805 149.173 18.0029C149.173 20.4702 150.818 22.6534 153.734 22.6534Z" fill="#364650"/>
<path fill-rule="evenodd" clip-rule="evenodd" d="M163.514 25.3151C162.796 25.3151 162.213 24.7319 162.213 24.0141V12.6496V10.1824V9.18049C162.213 5.92067 163.977 4.11133 166.46 4.11133C166.878 4.11133 167.387 4.23095 167.835 4.36553C168.359 4.51507 168.628 5.08329 168.478 5.60666C168.299 6.23469 167.611 6.4889 166.968 6.44404C166.938 6.44404 166.923 6.44404 166.893 6.44404C165.592 6.44404 164.815 7.38609 164.815 9.19544V10.7506H167.237C167.97 10.7506 168.568 11.3487 168.568 12.0814C168.568 12.8141 167.97 13.4123 167.237 13.4123H164.815V24.044C164.815 24.7319 164.232 25.3151 163.514 25.3151Z" fill="#364650"/>
<path fill-rule="evenodd" clip-rule="evenodd" d="M124.396 12.2466C125.577 11.3046 127.132 10.7363 128.957 10.7363C129.121 10.7363 129.331 10.7513 129.54 10.7662C130.303 10.841 130.781 11.5887 130.617 12.3214C130.452 13.0391 129.764 13.4429 129.046 13.3831C129.017 13.3831 128.987 13.3831 128.972 13.3831C126.146 13.3831 124.516 15.4317 124.411 17.7644V24.0148C124.411 24.7326 123.828 25.3158 123.11 25.3158C122.392 25.3158 121.809 24.7326 121.809 24.0148V12.0373C121.809 11.3195 122.392 10.7363 123.11 10.7363C123.828 10.7363 124.411 11.3195 124.411 12.0373V12.2466H124.396Z" fill="#364650"/>
<path fill-rule="evenodd" clip-rule="evenodd" d="M98.3177 12.2466C99.499 11.3046 101.054 10.7363 102.878 10.7363C103.058 10.7363 103.282 10.7513 103.506 10.7812C104.239 10.856 104.718 11.5737 104.583 12.2915C104.434 13.0242 103.731 13.4429 102.983 13.398C102.953 13.398 102.908 13.398 102.878 13.398C100.052 13.398 98.4224 15.4466 98.3177 17.7793V24.0298C98.3177 24.7475 97.7345 25.3307 97.0168 25.3307C96.299 25.3307 95.7158 24.7475 95.7158 24.0298V12.0373C95.7158 11.3195 96.299 10.7363 97.0168 10.7363C97.7345 10.7363 98.3177 11.3195 98.3177 12.0373V12.2466Z" fill="#364650"/>
<path fill-rule="evenodd" clip-rule="evenodd" d="M37.0389 12.2173V17.8846C37.0389 17.9743 37.0389 18.064 37.0389 18.1537V24.0154C37.0389 24.7332 36.4557 25.3163 35.7379 25.3163C35.0202 25.3163 34.437 24.7332 34.437 24.0154V5.39859C34.437 4.68083 35.0202 4.09766 35.7379 4.09766C36.4557 4.09766 37.0389 4.68083 37.0389 5.39859V12.2173C38.2202 11.2902 39.7753 10.722 41.5996 10.722C46.0408 10.722 48.7772 13.9369 48.7772 17.8696C48.7772 17.9145 48.7772 17.9593 48.7772 18.0042V23.9855C48.7772 24.7033 48.194 25.2864 47.4763 25.2864C46.7585 25.2864 46.1753 24.7033 46.1753 23.9855V18.1238C46.1753 18.0341 46.1753 17.9444 46.1753 17.8547C46.1753 15.4621 44.5604 13.3089 41.6146 13.3089C38.6987 13.3089 37.0538 15.4621 37.0538 17.8547L37.0389 12.2173Z" fill="#364650"/>
</svg>
