<svg width="32" height="32" viewBox="0 0 32 32" fill="none" xmlns="http://www.w3.org/2000/svg">
<g clip-path="url(#clip0_5554_352252)">
<path fill-rule="evenodd" clip-rule="evenodd" d="M4.79785 7.67054C4.79785 11.8425 8.04271 15.2219 12.0651 15.2219C16.0726 15.2219 19.3324 11.8425 19.3324 7.67054C19.3324 3.49858 16.0876 0.119141 12.0651 0.119141C8.05766 0.119141 4.79785 3.49858 4.79785 7.67054ZM16.1922 7.67054C16.1922 10.0631 14.338 11.992 12.0651 11.992C9.79224 11.992 7.93804 10.0631 7.93804 7.67054C7.93804 5.27802 9.79224 3.34905 12.0651 3.34905C14.338 3.34905 16.1922 5.27802 16.1922 7.67054Z" fill="#FF8C00"/>
<path fill-rule="evenodd" clip-rule="evenodd" d="M17.4634 19.0202C17.4634 23.1921 20.7232 26.5716 24.7307 26.5716C28.7381 26.5716 31.998 23.1921 31.998 19.0202C31.998 14.8482 28.7381 11.4688 24.7307 11.4688C20.7082 11.4837 17.4634 14.8631 17.4634 19.0202ZM28.8428 19.0202C28.8428 21.4127 26.9886 23.3416 24.7157 23.3416C22.4428 23.3416 20.5886 21.4127 20.5886 19.0202C20.5886 16.6276 22.4428 14.6987 24.7157 14.6987C26.9886 14.6987 28.8428 16.6276 28.8428 19.0202Z" fill="#FF8C00"/>
<path fill-rule="evenodd" clip-rule="evenodd" d="M1.05957 24.2838C1.05957 28.4558 4.30443 31.8352 8.32686 31.8352C12.3343 31.8352 15.5941 28.4558 15.5941 24.2838C15.5941 20.1119 12.3343 16.7324 8.32686 16.7324C4.31938 16.7324 1.05957 20.1119 1.05957 24.2838ZM12.454 24.2838C12.454 26.6763 10.5998 28.6053 8.32686 28.6053C6.05396 28.6053 4.19976 26.6763 4.19976 24.2838C4.19976 21.8913 6.05396 19.9623 8.32686 19.9623C10.5998 19.9474 12.454 21.8763 12.454 24.2838Z" fill="#FF8C00"/>
</g>
<defs>
<clipPath id="clip0_5554_352252">
<rect width="30.9981" height="32" fill="white" transform="translate(1)"/>
</clipPath>
</defs>
</svg>
