<svg width="48" height="48" viewBox="0 0 48 48" fill="none" xmlns="http://www.w3.org/2000/svg">
<g clip-path="url(#clip0_5545_352235)">
<path fill-rule="evenodd" clip-rule="evenodd" d="M6.69727 11.5068C6.69727 17.7647 11.5646 22.8339 17.5982 22.8339C23.6094 22.8339 28.4991 17.7647 28.4991 11.5068C28.4991 5.24885 23.6318 0.179688 17.5982 0.179688C11.587 0.179688 6.69727 5.24885 6.69727 11.5068ZM23.7889 11.5068C23.7889 15.0956 21.0075 17.989 17.5982 17.989C14.1889 17.989 11.4075 15.0956 11.4075 11.5068C11.4075 7.91801 14.1889 5.02455 17.5982 5.02455C21.0075 5.02455 23.7889 7.91801 23.7889 11.5068Z" fill="#FF8C00"/>
<path fill-rule="evenodd" clip-rule="evenodd" d="M25.6953 28.5312C25.6953 34.7891 30.585 39.8583 36.5962 39.8583C42.6075 39.8583 47.4972 34.7891 47.4972 28.5312C47.4972 22.2733 42.6075 17.2041 36.5962 17.2041C30.5626 17.2265 25.6953 22.2957 25.6953 28.5312ZM42.7645 28.5312C42.7645 32.12 39.9832 35.0134 36.5738 35.0134C33.1645 35.0134 30.3832 32.12 30.3832 28.5312C30.3832 24.9424 33.1645 22.049 36.5738 22.049C39.9832 22.049 42.7645 24.9424 42.7645 28.5312Z" fill="#FF8C00"/>
<path fill-rule="evenodd" clip-rule="evenodd" d="M1.08984 36.4267C1.08984 42.6847 5.95713 47.7538 11.9908 47.7538C18.002 47.7538 22.8917 42.6847 22.8917 36.4267C22.8917 30.1688 18.002 25.0996 11.9908 25.0996C5.97956 25.0996 1.08984 30.1688 1.08984 36.4267ZM18.1814 36.4267C18.1814 40.0155 15.4001 42.909 11.9908 42.909C8.58143 42.909 5.80012 40.0155 5.80012 36.4267C5.80012 32.8379 8.58143 29.9445 11.9908 29.9445C15.4001 29.922 18.1814 32.8155 18.1814 36.4267Z" fill="#FF8C00"/>
</g>
<defs>
<clipPath id="clip0_5545_352235">
<rect width="46.4972" height="48" fill="white" transform="translate(1)"/>
</clipPath>
</defs>
</svg>
