<svg width="20" height="20" viewBox="0 0 20 20" fill="none" xmlns="http://www.w3.org/2000/svg">
<g clip-path="url(#clip0_5554_352255)">
<g clip-path="url(#clip1_5554_352255)">
<path fill-rule="evenodd" clip-rule="evenodd" d="M2.37402 4.79482C2.37402 7.4023 4.40206 9.51445 6.91608 9.51445C9.42075 9.51445 11.4581 7.4023 11.4581 4.79482C11.4581 2.18734 9.4301 0.0751953 6.91608 0.0751953C4.41141 0.0751953 2.37402 2.18734 2.37402 4.79482ZM9.49552 4.79482C9.49552 6.29015 8.33664 7.49575 6.91608 7.49575C5.49552 7.49575 4.33664 6.29015 4.33664 4.79482C4.33664 3.29949 5.49552 2.09389 6.91608 2.09389C8.33664 2.09389 9.49552 3.29949 9.49552 4.79482Z" fill="#FF8C00"/>
<path fill-rule="evenodd" clip-rule="evenodd" d="M10.29 11.8886C10.29 14.496 12.3274 16.6082 14.8321 16.6082C17.3368 16.6082 19.3742 14.496 19.3742 11.8886C19.3742 9.28109 17.3368 7.16895 14.8321 7.16895C12.3181 7.17829 10.29 9.29044 10.29 11.8886ZM17.4022 11.8886C17.4022 13.3839 16.2433 14.5895 14.8228 14.5895C13.4022 14.5895 12.2433 13.3839 12.2433 11.8886C12.2433 10.3932 13.4022 9.18764 14.8228 9.18764C16.2433 9.18764 17.4022 10.3932 17.4022 11.8886Z" fill="#FF8C00"/>
<path fill-rule="evenodd" clip-rule="evenodd" d="M0.0375977 15.1776C0.0375977 17.7851 2.06563 19.8973 4.57965 19.8973C7.08433 19.8973 9.12171 17.7851 9.12171 15.1776C9.12171 12.5702 7.08433 10.458 4.57965 10.458C2.07498 10.458 0.0375977 12.5702 0.0375977 15.1776ZM7.15909 15.1776C7.15909 16.673 6.00021 17.8786 4.57965 17.8786C3.15909 17.8786 2.00021 16.673 2.00021 15.1776C2.00021 13.6823 3.15909 12.4767 4.57965 12.4767C6.00021 12.4674 7.15909 13.673 7.15909 15.1776Z" fill="#FF8C00"/>
</g>
</g>
<defs>
<clipPath id="clip0_5554_352255">
<rect width="20" height="20" fill="white"/>
</clipPath>
<clipPath id="clip1_5554_352255">
<rect width="19.3738" height="20" fill="white"/>
</clipPath>
</defs>
</svg>
