<svg width="104" height="36" viewBox="0 0 104 36" fill="none" xmlns="http://www.w3.org/2000/svg">
<g clip-path="url(#clip0_5544_352301)">
<path d="M103.234 7.54955V31.8697L99.9302 35.1758V11.3636L103.234 7.54955Z" fill="#DB701B"/>
<mask id="mask0_5544_352301" style="mask-type:alpha" maskUnits="userSpaceOnUse" x="77" y="11" width="23" height="25">
<path d="M77.6934 11.3675V35.1797H99.9309V11.3675H77.6934Z" fill="white"/>
</mask>
<g mask="url(#mask0_5544_352301)">
<path d="M77.6934 11.3675V35.1797H99.9309V11.3675H77.6934Z" fill="url(#paint0_linear_5544_352301)"/>
</g>
<path d="M81.1745 7.56727L77.6914 11.3652H99.9289L103.233 7.55122L81.1745 7.56727Z" fill="#F9D506"/>
<path d="M53.6331 8.61352L75.5072 5.57281L73.6771 10.8177L52.1025 13.7617L53.6331 8.61352Z" fill="#98CCEE"/>
<mask id="mask1_5544_352301" style="mask-type:alpha" maskUnits="userSpaceOnUse" x="52" y="10" width="25" height="26">
<path d="M73.6771 10.8166L76.7074 32.1491L55.1385 35.1797L52.1025 13.7607L73.6771 10.8166Z" fill="white"/>
</mask>
<g mask="url(#mask1_5544_352301)">
<path d="M73.6771 10.8166L76.7074 32.1491L55.1385 35.1797L52.1025 13.7607L73.6771 10.8166Z" fill="url(#paint1_linear_5544_352301)"/>
</g>
<path d="M73.6772 10.814L76.7076 32.1465L78.361 27.5417L75.5244 5.69787L75.5074 5.56914" fill="#4498D9"/>
<mask id="mask2_5544_352301" style="mask-type:alpha" maskUnits="userSpaceOnUse" x="26" y="6" width="29" height="30">
<path d="M35.1586 6.793L54.5236 15.5306L45.7856 35.3672L26.4209 26.6298L35.1586 6.793Z" fill="white"/>
</mask>
<g mask="url(#mask2_5544_352301)">
<path d="M35.1586 6.793L54.5236 15.5306L45.7856 35.3672L26.4209 26.6298L35.1586 6.793Z" fill="url(#paint2_linear_5544_352301)"/>
</g>
<path d="M33.1479 -0.000212669L35.1581 6.78978L54.523 15.5273L52.8949 9.03949L33.1479 -0.000212669Z" fill="#91D692"/>
<path d="M33.1475 0.00210571L25.3535 18.5L26.4198 26.6289L35.1576 6.7921L33.1475 0.00210571Z" fill="#64C65E"/>
<mask id="mask3_5544_352301" style="mask-type:alpha" maskUnits="userSpaceOnUse" x="0" y="10" width="26" height="26">
<path d="M22.3448 10.7815L25.5366 31.7733L4.13558 35.1289L0.698242 14.0959L22.3448 10.7815Z" fill="white"/>
</mask>
<g mask="url(#mask3_5544_352301)">
<path d="M22.3448 10.7815L25.5366 31.7733L4.13558 35.1289L0.698242 14.0959L22.3448 10.7815Z" fill="url(#paint3_linear_5544_352301)"/>
</g>
<path d="M23.8093 3.1394L26.9776 24.3341L25.5366 31.7754L22.3447 10.7837L23.8093 3.1394Z" fill="#73141B"/>
<path d="M70.0092 14.8999C69.9118 14.2373 69.6855 13.7318 69.3188 13.4007C69.0273 13.1363 68.6604 13.0025 68.2426 13.0034C68.1358 13.0034 68.0262 13.0118 67.9121 13.0284C67.3523 13.1088 66.9232 13.3684 66.6607 13.7966C66.4694 14.1058 66.3766 14.4791 66.3766 14.9085C66.3766 15.0729 66.3902 15.2462 66.4172 15.4278L67.2038 20.9788L61.0023 21.8914L60.2157 16.3393C60.1203 15.694 59.8975 15.1937 59.5355 14.8534C59.2436 14.5777 58.8793 14.4368 58.4685 14.4379C58.3716 14.4379 58.2721 14.4455 58.1703 14.4605C57.5867 14.5445 57.1419 14.7991 56.8721 15.221C56.6762 15.5248 56.5818 15.8997 56.5818 16.3358C56.5818 16.5034 56.596 16.6803 56.6232 16.867L58.7451 31.3036C58.8424 31.9671 59.0746 32.4717 59.4562 32.7977C59.754 33.0524 60.127 33.1805 60.5543 33.1797C60.6711 33.1797 60.7926 33.1704 60.9179 33.1518C61.4517 33.0747 61.8642 32.8165 62.1127 32.3887C62.2911 32.0848 62.3777 31.7195 62.3777 31.3016C62.3777 31.1344 62.3642 30.9588 62.337 30.7752L61.47 25.0717L67.6714 24.1602L68.5388 29.8636C68.6343 30.5188 68.8642 31.0202 69.2404 31.3506C69.5393 31.6134 69.9087 31.7457 70.3275 31.745C70.4353 31.745 70.5454 31.7368 70.6592 31.7201C71.217 31.6389 71.6444 31.3833 71.8993 30.9586C72.0833 30.6555 72.1719 30.2882 72.1719 29.8647C72.1719 29.6972 72.1584 29.5208 72.1314 29.3358L70.0092 14.8999ZM44.7877 22.8848C44.0579 24.6035 43.0946 25.7825 41.9029 26.4356C41.2641 26.7857 40.6097 26.959 39.9327 26.9592C39.3444 26.9592 38.7378 26.8277 38.1116 26.5627C36.7563 25.9849 35.9121 25.0563 35.5466 23.7465C35.4243 23.3072 35.363 22.8454 35.363 22.36C35.363 21.3985 35.6043 20.3441 36.0909 19.1967C36.8371 17.4372 37.8111 16.237 39.0038 15.5798C39.6409 15.2287 40.2959 15.0543 40.9751 15.0543C41.5699 15.0543 42.1846 15.1873 42.8213 15.4575C44.1679 16.0306 45.0035 16.9611 45.3624 18.2766C45.4791 18.707 45.5378 19.1597 45.5378 19.6362C45.5378 20.6179 45.2896 21.7012 44.7877 22.8848ZM46.909 14.2438C46.1483 13.4414 45.224 12.8103 44.1402 12.3506C43.0644 11.8937 41.9767 11.6657 40.8805 11.6657L40.83 11.6659C39.717 11.6732 38.6169 11.921 37.5327 12.4073V12.4069C36.3978 12.9009 35.4088 13.5922 34.5695 14.4798C33.7302 15.3671 33.0468 16.4343 32.5193 17.6773C31.9989 18.9059 31.7098 20.1351 31.6562 21.3644C31.65 21.5036 31.6471 21.6427 31.6471 21.7813C31.6471 22.8662 31.8333 23.929 32.2049 24.9678C32.5991 26.0639 33.1808 27.013 33.9477 27.8129C34.7141 28.613 35.6571 29.2495 36.7729 29.7216V29.7214C37.8401 30.1748 38.9238 30.4015 40.0215 30.401H40.0495C41.1567 30.3959 42.2546 30.1587 43.3402 29.6924L43.3411 29.6921L43.3417 29.6917C44.4837 29.1821 45.4795 28.4815 46.3288 27.595C47.1776 26.7075 47.8639 25.6434 48.3883 24.4073C48.9127 23.1716 49.1985 21.941 49.2455 20.7171C49.2499 20.599 49.2521 20.4813 49.2521 20.3639C49.2521 19.2633 49.0579 18.1848 48.6686 17.1299C48.2565 16.0089 47.6695 15.046 46.909 14.2438ZM20.0461 28.4312C19.8772 28.2295 19.6502 28.0807 19.3734 27.9841C19.089 27.8847 18.7451 27.837 18.34 27.837C17.9582 27.837 17.522 27.8793 17.0297 27.9637L11.3812 28.9291C11.4409 28.4939 11.6571 27.9219 12.0383 27.2248C12.4639 26.4435 13.0914 25.5054 13.9203 24.4133L13.9209 24.4128C14.2054 24.0326 14.4227 23.7423 14.5729 23.5416C14.6809 23.4081 14.8311 23.2115 15.0257 22.9517C16.3179 21.2566 17.1178 19.8765 17.4244 18.793C17.5997 18.1788 17.7066 17.56 17.7453 16.9366C17.7557 16.766 17.7606 16.5968 17.7606 16.4286C17.7606 15.9819 17.724 15.5419 17.65 15.1092C17.5828 14.7148 17.4858 14.3868 17.3556 14.1237C17.2254 13.8607 17.0601 13.6611 16.8561 13.5351C16.6261 13.3949 16.3026 13.3356 15.879 13.3347C15.5295 13.3347 15.1104 13.3772 14.6197 13.4609L8.09197 14.5777C7.30142 14.7132 6.71771 14.9459 6.34535 15.2965C6.04932 15.5744 5.89639 15.934 5.89796 16.3466C5.89796 16.4544 5.90779 16.5659 5.92774 16.6812C6.01947 17.236 6.30859 17.6426 6.77462 17.8496C7.0497 17.9736 7.38212 18.033 7.77001 18.033C8.03421 18.033 8.32438 18.0053 8.64155 17.9512L14.1051 17.03C14.1145 17.1266 14.1208 17.2228 14.1208 17.3186C14.1208 17.6599 14.0617 17.9932 13.9432 18.3214C13.781 18.7735 13.3758 19.4201 12.7302 20.2419C12.5471 20.4662 12.2669 20.8157 11.8892 21.2895C10.4158 23.0743 9.36051 24.596 8.72196 25.8619C8.72196 25.8624 8.72183 25.8624 8.72154 25.8629L8.72139 25.8635C8.26804 26.7347 7.95343 27.5929 7.78084 28.4378C7.68034 28.9304 7.62948 29.4036 7.62948 29.8575C7.62948 30.1826 7.65563 30.4971 7.70769 30.8018C7.78256 31.2387 7.89039 31.5992 8.0357 31.8847C8.18099 32.1692 8.36632 32.3816 8.59503 32.5074C8.80793 32.623 9.12097 32.6686 9.55182 32.6701C10.0988 32.6701 10.835 32.5893 11.7669 32.4303L17.6899 31.4177C18.7387 31.237 19.4682 30.9869 19.892 30.6388C20.2308 30.3607 20.4064 29.9785 20.4046 29.5287C20.4046 29.4149 20.394 29.2973 20.3728 29.175C20.3231 28.8829 20.2147 28.6323 20.0461 28.4312ZM15.026 22.9512L15.0264 22.951L15.0257 22.9517H15.0254L15.026 22.9512ZM91.9662 27.7766C91.1141 28.8061 89.9669 29.3172 88.4859 29.319C86.9945 29.3172 85.8427 28.8077 84.9859 27.7835C84.1316 26.7582 83.6993 25.3485 83.6987 23.5396C83.6993 21.6957 84.13 20.2653 84.9795 19.2319C85.8314 18.1989 86.9867 17.6862 88.4859 17.6843C89.9669 17.6862 91.1138 18.1986 91.9662 19.2319C92.8163 20.2653 93.2477 21.6957 93.2477 23.5396C93.2477 25.3402 92.8174 26.7482 91.9662 27.7766ZM96.5364 19.9297C96.0964 18.8239 95.4449 17.8326 94.5835 16.958C93.759 16.1172 92.8322 15.4825 91.809 15.0567C90.7843 14.6306 89.6769 14.418 88.4875 14.4182C87.2897 14.418 86.1716 14.6306 85.1392 15.0565C84.1073 15.4825 83.1811 16.1174 82.3645 16.9583C81.5043 17.8243 80.8553 18.8124 80.4246 19.9176C79.9941 21.024 79.7782 22.2305 79.7782 23.5359C79.7782 24.8243 79.9947 26.0269 80.4315 27.1402C80.8664 28.2539 81.5117 29.254 82.3645 30.1368C83.1636 30.9626 84.0802 31.5871 85.1077 32.0087C86.1357 32.4295 87.2637 32.6405 88.4875 32.6405C89.6674 32.6405 90.7737 32.4295 91.8012 32.0087C92.8292 31.5875 93.7581 30.9632 94.5828 30.1379C95.4449 29.2541 96.0964 28.2574 96.5364 27.1471C96.9768 26.038 97.1968 24.8329 97.1968 23.5359C97.1968 22.2388 96.9768 21.0358 96.5364 19.9297Z" fill="white"/>
<path d="M0.698242 14.0996L1.12183 11.9874L2.20113 6.60451L23.8093 3.14095L22.3448 10.7852L0.698242 14.0996Z" fill="#ED3239"/>
</g>
<defs>
<linearGradient id="paint0_linear_5544_352301" x1="77.466" y1="10.7736" x2="99.5244" y2="35.0754" gradientUnits="userSpaceOnUse">
<stop stop-color="#F5C20F"/>
<stop offset="0.00599861" stop-color="#F5C20F"/>
<stop offset="1" stop-color="#E68416"/>
</linearGradient>
<linearGradient id="paint1_linear_5544_352301" x1="52.8768" y1="13.7383" x2="75.6255" y2="32.0062" gradientUnits="userSpaceOnUse">
<stop stop-color="#4189CF"/>
<stop offset="0.005618" stop-color="#4189CF"/>
<stop offset="0.0297292" stop-color="#4189CF"/>
<stop offset="1" stop-color="#2B61A4"/>
</linearGradient>
<linearGradient id="paint2_linear_5544_352301" x1="40.4722" y1="14.7286" x2="40.4722" y2="34.663" gradientUnits="userSpaceOnUse">
<stop stop-color="#34A43F"/>
<stop offset="0.975753" stop-color="#288B51"/>
<stop offset="1" stop-color="#288B51"/>
</linearGradient>
<linearGradient id="paint3_linear_5544_352301" x1="11.5539" y1="12.7747" x2="14.9821" y2="33.4711" gradientUnits="userSpaceOnUse">
<stop stop-color="#DA1B31"/>
<stop offset="1" stop-color="#BB1E35"/>
</linearGradient>
<clipPath id="clip0_5544_352301">
<rect width="102.535" height="35.3649" fill="white" transform="translate(0.698242)"/>
</clipPath>
</defs>
</svg>
