<svg width="20" height="20" viewBox="0 0 20 20" fill="none" xmlns="http://www.w3.org/2000/svg">
<g clip-path="url(#clip0_4326_304322)">
<path d="M19.1997 8.33947V12.6563L18.6133 13.2432V9.01646L19.1997 8.33947Z" fill="#DB701B"/>
<mask id="mask0_4326_304322" style="mask-type:alpha" maskUnits="userSpaceOnUse" x="14" y="9" width="5" height="5">
<path d="M14.6665 9.01646V13.2432H18.6137V9.01646H14.6665Z" fill="white"/>
</mask>
<g mask="url(#mask0_4326_304322)">
<path d="M14.6665 9.01646V13.2432H18.6137V9.01646H14.6665Z" fill="url(#paint0_linear_4326_304322)"/>
</g>
<path d="M15.2843 8.34148L14.666 9.01562H18.6132L19.1997 8.33863L15.2843 8.34148Z" fill="#F9D506"/>
<path d="M10.3957 8.52759L14.2784 7.98786L13.9535 8.91883L10.124 9.44141L10.3957 8.52759Z" fill="#98CCEE"/>
<mask id="mask1_4326_304322" style="mask-type:alpha" maskUnits="userSpaceOnUse" x="10" y="8" width="5" height="6">
<path d="M13.9535 8.91868L14.4914 12.7052L10.6629 13.2432L10.124 9.44126L13.9535 8.91868Z" fill="white"/>
</mask>
<g mask="url(#mask1_4326_304322)">
<path d="M13.9535 8.91868L14.4914 12.7052L10.6629 13.2432L10.124 9.44126L13.9535 8.91868Z" fill="url(#paint1_linear_4326_304322)"/>
</g>
<path d="M13.9531 8.91853L14.491 12.7051L14.7845 11.8877L14.281 8.01041L14.278 7.98756" fill="#4498D9"/>
<mask id="mask2_4326_304322" style="mask-type:alpha" maskUnits="userSpaceOnUse" x="5" y="8" width="6" height="6">
<path d="M7.11688 8.20343L10.5542 9.75436L9.00319 13.2754L5.56592 11.7245L7.11688 8.20343Z" fill="white"/>
</mask>
<g mask="url(#mask2_4326_304322)">
<path d="M7.11688 8.20343L10.5542 9.75436L9.00319 13.2754L5.56592 11.7245L7.11688 8.20343Z" fill="url(#paint2_linear_4326_304322)"/>
</g>
<path d="M6.75928 6.9997L7.11608 8.20493L10.5534 9.75586L10.2644 8.60426L6.75928 6.9997Z" fill="#91D692"/>
<path d="M6.75942 6.99929L5.37598 10.2827L5.56525 11.7256L7.11621 8.20452L6.75942 6.99929Z" fill="#64C65E"/>
<mask id="mask3_4326_304322" style="mask-type:alpha" maskUnits="userSpaceOnUse" x="0" y="8" width="6" height="6">
<path d="M4.84132 8.91366L5.40788 12.6397L1.60916 13.2354L0.999023 9.50197L4.84132 8.91366Z" fill="white"/>
</mask>
<g mask="url(#mask3_4326_304322)">
<path d="M4.84132 8.91366L5.40788 12.6397L1.60916 13.2354L0.999023 9.50197L4.84132 8.91366Z" fill="url(#paint3_linear_4326_304322)"/>
</g>
<path d="M5.10176 7.55574L5.66414 11.3178L5.40836 12.6387L4.8418 8.91261L5.10176 7.55574Z" fill="#73141B"/>
<path d="M13.3022 9.64398C13.2849 9.52637 13.2448 9.43665 13.1797 9.37787C13.1279 9.33094 13.0628 9.30718 12.9886 9.30735C12.9697 9.30735 12.9502 9.30884 12.93 9.31178C12.8306 9.32605 12.7544 9.37214 12.7078 9.44814C12.6739 9.50303 12.6574 9.56928 12.6574 9.6455C12.6574 9.6747 12.6598 9.70544 12.6646 9.73768L12.8043 10.723L11.7035 10.885L11.5638 9.89948C11.5469 9.78493 11.5074 9.69612 11.4431 9.63573C11.3913 9.58679 11.3266 9.56177 11.2537 9.56197C11.2365 9.56197 11.2189 9.56333 11.2008 9.56598C11.0972 9.5809 11.0182 9.62608 10.9703 9.70098C10.9356 9.7549 10.9188 9.82144 10.9188 9.89886C10.9188 9.92861 10.9213 9.96 10.9262 9.99314L11.3028 12.5557C11.3201 12.6734 11.3613 12.763 11.429 12.8209C11.4819 12.8661 11.5481 12.8888 11.6239 12.8887C11.6447 12.8887 11.6662 12.887 11.6885 12.8837C11.7832 12.87 11.8565 12.8242 11.9006 12.7483C11.9322 12.6943 11.9476 12.6295 11.9476 12.5553C11.9476 12.5256 11.9452 12.4945 11.9404 12.4619L11.7865 11.4495L12.8872 11.2877L13.0412 12.3001C13.0582 12.4164 13.099 12.5054 13.1657 12.564C13.2188 12.6107 13.2844 12.6341 13.3587 12.634C13.3778 12.634 13.3974 12.6326 13.4176 12.6296C13.5166 12.6152 13.5925 12.5698 13.6377 12.4944C13.6704 12.4406 13.6861 12.3754 13.6861 12.3003C13.6861 12.2705 13.6837 12.2392 13.6789 12.2064L13.3022 9.64398ZM8.82534 11.0613C8.69582 11.3664 8.52483 11.5757 8.31329 11.6916C8.19991 11.7537 8.08375 11.7845 7.96358 11.7845C7.85916 11.7845 7.75148 11.7612 7.64034 11.7141C7.39977 11.6116 7.24991 11.4468 7.18505 11.2143C7.16333 11.1363 7.15246 11.0543 7.15246 10.9682C7.15246 10.7975 7.19528 10.6103 7.28166 10.4067C7.4141 10.0944 7.587 9.88132 7.79871 9.76467C7.91179 9.70234 8.02805 9.6714 8.14861 9.6714C8.25419 9.6714 8.36329 9.69499 8.47631 9.74296C8.71533 9.84468 8.86367 10.0098 8.92736 10.2434C8.94808 10.3197 8.9585 10.4001 8.9585 10.4847C8.9585 10.6589 8.91445 10.8512 8.82534 11.0613ZM9.20189 9.52753C9.06686 9.38509 8.9028 9.27307 8.71041 9.19148C8.51946 9.11037 8.3264 9.06991 8.13181 9.06991L8.12285 9.06994C7.92529 9.07124 7.73002 9.11522 7.53758 9.20154V9.20148C7.33613 9.28916 7.16058 9.41186 7.0116 9.56941C6.86262 9.7269 6.74132 9.91634 6.64768 10.137C6.55531 10.3551 6.50401 10.5732 6.4945 10.7914C6.4934 10.8161 6.49288 10.8408 6.49288 10.8654C6.49288 11.058 6.52592 11.2467 6.59189 11.4311C6.66186 11.6256 6.76511 11.7941 6.90124 11.9361C7.03727 12.0781 7.20467 12.1911 7.40271 12.2749V12.2748C7.59215 12.3553 7.7845 12.3955 7.97934 12.3954H7.98432C8.18085 12.3946 8.37572 12.3524 8.56843 12.2697L8.56859 12.2696L8.56868 12.2696C8.77139 12.1791 8.94814 12.0547 9.0989 11.8974C9.24956 11.7399 9.37139 11.551 9.46447 11.3316C9.55755 11.1122 9.60827 10.8938 9.61662 10.6765C9.6174 10.6556 9.61779 10.6347 9.61779 10.6139C9.61779 10.4185 9.58332 10.2271 9.51422 10.0398C9.44107 9.84083 9.33688 9.66991 9.20189 9.52753ZM4.43368 12.0458C4.40371 12.01 4.36341 11.9836 4.31428 11.9664C4.26379 11.9488 4.20274 11.9403 4.13084 11.9403C4.06307 11.9403 3.98566 11.9478 3.89827 11.9628L2.89565 12.1342C2.90625 12.0569 2.94462 11.9554 3.01228 11.8317C3.08782 11.693 3.1992 11.5265 3.34634 11.3326L3.34644 11.3325C3.39694 11.265 3.43553 11.2135 3.46219 11.1779C3.48136 11.1542 3.50802 11.1193 3.54256 11.0732C3.77193 10.7723 3.91391 10.5273 3.96833 10.335C3.99945 10.226 4.01841 10.1162 4.02528 10.0055C4.02714 9.97521 4.02801 9.94518 4.02801 9.91534C4.02801 9.83604 4.02151 9.75794 4.00837 9.68114C3.99644 9.61113 3.97922 9.55291 3.95611 9.5062C3.93301 9.45953 3.90367 9.42409 3.86746 9.40172C3.82662 9.37684 3.7692 9.36632 3.69402 9.36615C3.63198 9.36615 3.55758 9.3737 3.47048 9.38855L2.31181 9.58679C2.17148 9.61084 2.06787 9.65214 2.00178 9.71438C1.94923 9.7637 1.92209 9.82753 1.92237 9.90077C1.92237 9.9199 1.92411 9.93971 1.92765 9.96016C1.94393 10.0586 1.99525 10.1308 2.07797 10.1676C2.1268 10.1896 2.18581 10.2001 2.25466 10.2001C2.30155 10.2001 2.35306 10.1952 2.40936 10.1856L3.37914 10.0221C3.38081 10.0392 3.38193 10.0563 3.38193 10.0733C3.38193 10.1339 3.37144 10.193 3.35041 10.2513C3.32162 10.3316 3.2497 10.4463 3.13509 10.5922C3.1026 10.632 3.05286 10.694 2.98582 10.7781C2.72429 11.0949 2.53697 11.3651 2.42363 11.5897C2.42363 11.5898 2.42361 11.5898 2.42355 11.5899L2.42353 11.59C2.34306 11.7447 2.28721 11.897 2.25658 12.047C2.23874 12.1344 2.22971 12.2184 2.22971 12.299C2.22971 12.3567 2.23435 12.4125 2.24359 12.4666C2.25688 12.5441 2.27603 12.6081 2.30182 12.6588C2.32761 12.7093 2.3605 12.747 2.4011 12.7693C2.43889 12.7899 2.49445 12.798 2.57093 12.7982C2.66802 12.7982 2.79871 12.7839 2.96411 12.7557L4.01545 12.5759C4.20162 12.5439 4.33111 12.4994 4.40633 12.4377C4.46646 12.3883 4.49763 12.3205 4.49731 12.2406C4.49731 12.2204 4.49543 12.1995 4.49168 12.1778C4.48284 12.126 4.46362 12.0815 4.43368 12.0458ZM3.5426 11.0731L3.54267 11.0731L3.54256 11.0732H3.5425L3.5426 11.0731ZM17.1996 11.9296C17.0484 12.1123 16.8447 12.2031 16.5818 12.2034C16.3171 12.2031 16.1127 12.1126 15.9606 11.9308C15.809 11.7489 15.7322 11.4986 15.7321 11.1775C15.7322 10.8503 15.8087 10.5963 15.9595 10.4129C16.1107 10.2296 16.3157 10.1386 16.5818 10.1382C16.8447 10.1386 17.0483 10.2295 17.1996 10.4129C17.3505 10.5963 17.4271 10.8503 17.4271 11.1775C17.4271 11.4971 17.3507 11.7471 17.1996 11.9296ZM18.0108 10.5368C17.9327 10.3405 17.8171 10.1645 17.6642 10.0093C17.5178 9.86006 17.3533 9.74739 17.1717 9.67182C16.9898 9.59618 16.7933 9.55844 16.5821 9.55847C16.3695 9.55844 16.1711 9.59618 15.9878 9.67178C15.8046 9.74739 15.6402 9.86009 15.4953 10.0094C15.3426 10.1631 15.2274 10.3385 15.151 10.5346C15.0745 10.731 15.0362 10.9452 15.0362 11.1769C15.0362 11.4056 15.0746 11.619 15.1522 11.8167C15.2294 12.0143 15.3439 12.1918 15.4953 12.3486C15.6371 12.4951 15.7998 12.606 15.9822 12.6808C16.1647 12.7555 16.3649 12.793 16.5821 12.793C16.7916 12.793 16.9879 12.7555 17.1703 12.6808C17.3528 12.6061 17.5177 12.4952 17.6641 12.3487C17.8171 12.1919 17.9327 12.015 18.0108 11.8179C18.089 11.621 18.1281 11.4071 18.1281 11.1769C18.1281 10.9466 18.089 10.7331 18.0108 10.5368Z" fill="white"/>
<path d="M0.999512 9.50098L1.0747 9.12605L1.26628 8.17059L5.10176 7.5558L4.8418 8.91267L0.999512 9.50098Z" fill="#ED3239"/>
</g>
<defs>
<linearGradient id="paint0_linear_4326_304322" x1="14.6261" y1="8.91105" x2="18.5416" y2="13.2246" gradientUnits="userSpaceOnUse">
<stop stop-color="#F5C20F"/>
<stop offset="0.00599861" stop-color="#F5C20F"/>
<stop offset="1" stop-color="#E68416"/>
</linearGradient>
<linearGradient id="paint1_linear_4326_304322" x1="10.2614" y1="9.43728" x2="14.2994" y2="12.6799" gradientUnits="userSpaceOnUse">
<stop stop-color="#4189CF"/>
<stop offset="0.005618" stop-color="#4189CF"/>
<stop offset="0.0297292" stop-color="#4189CF"/>
<stop offset="1" stop-color="#2B61A4"/>
</linearGradient>
<linearGradient id="paint2_linear_4326_304322" x1="8.06005" y1="9.61202" x2="8.06005" y2="13.1504" gradientUnits="userSpaceOnUse">
<stop stop-color="#34A43F"/>
<stop offset="0.975753" stop-color="#288B51"/>
<stop offset="1" stop-color="#288B51"/>
</linearGradient>
<linearGradient id="paint3_linear_4326_304322" x1="2.92591" y1="9.26745" x2="3.53442" y2="12.9411" gradientUnits="userSpaceOnUse">
<stop stop-color="#DA1B31"/>
<stop offset="1" stop-color="#BB1E35"/>
</linearGradient>
<clipPath id="clip0_4326_304322">
<rect width="18.2002" height="6.27732" fill="white" transform="translate(1 7)"/>
</clipPath>
</defs>
</svg>
