<svg width="49" height="48" viewBox="0 0 49 48" fill="none" xmlns="http://www.w3.org/2000/svg">
<g clip-path="url(#clip0_4326_303823)">
<path d="M47.989 17.6145V28.6175L46.4941 30.1133V19.34L47.989 17.6145Z" fill="#DB701B"/>
<mask id="mask0_4326_303823" style="mask-type:alpha" maskUnits="userSpaceOnUse" x="36" y="19" width="11" height="12">
<path d="M36.4341 19.341V30.1143H46.4949V19.341H36.4341Z" fill="white"/>
</mask>
<g mask="url(#mask0_4326_303823)">
<path d="M36.4341 19.341V30.1143H46.4949V19.341H36.4341Z" fill="url(#paint0_linear_4326_303823)"/>
</g>
<path d="M38.0089 17.6215L36.4331 19.3398H46.4939L47.9887 17.6143L38.0089 17.6215Z" fill="#F9D506"/>
<path d="M25.5484 18.0947L35.4448 16.719L34.6168 19.0919L24.856 20.4238L25.5484 18.0947Z" fill="#98CCEE"/>
<mask id="mask1_4326_303823" style="mask-type:alpha" maskUnits="userSpaceOnUse" x="24" y="19" width="12" height="12">
<path d="M34.6168 19.0918L35.9878 28.7432L26.2295 30.1143L24.856 20.4237L34.6168 19.0918Z" fill="white"/>
</mask>
<g mask="url(#mask1_4326_303823)">
<path d="M34.6168 19.0918L35.9878 28.7432L26.2295 30.1143L24.856 20.4237L34.6168 19.0918Z" fill="url(#paint1_linear_4326_303823)"/>
</g>
<path d="M34.6167 19.0918L35.9877 28.7432L36.7358 26.6598L35.4524 16.7771L35.4447 16.7189" fill="#4498D9"/>
<mask id="mask2_4326_303823" style="mask-type:alpha" maskUnits="userSpaceOnUse" x="13" y="17" width="13" height="14">
<path d="M17.19 17.2705L25.9512 21.2236L21.9979 30.1982L13.2368 26.2452L17.19 17.2705Z" fill="white"/>
</mask>
<g mask="url(#mask2_4326_303823)">
<path d="M17.19 17.2705L25.9512 21.2236L21.9979 30.1982L13.2368 26.2452L17.19 17.2705Z" fill="url(#paint2_linear_4326_303823)"/>
</g>
<path d="M16.2803 14.1995L17.1897 17.2715L25.9509 21.2246L25.2143 18.2893L16.2803 14.1995Z" fill="#91D692"/>
<path d="M16.2806 14.1985L12.7544 22.5674L13.2368 26.2451L17.19 17.2704L16.2806 14.1985Z" fill="#64C65E"/>
<mask id="mask3_4326_303823" style="mask-type:alpha" maskUnits="userSpaceOnUse" x="1" y="19" width="12" height="12">
<path d="M11.3926 19.0754L12.8367 28.5726L3.15426 30.0908L1.59912 20.575L11.3926 19.0754Z" fill="white"/>
</mask>
<g mask="url(#mask3_4326_303823)">
<path d="M11.3926 19.0754L12.8367 28.5726L3.15426 30.0908L1.59912 20.575L11.3926 19.0754Z" fill="url(#paint3_linear_4326_303823)"/>
</g>
<path d="M12.0552 15.6186L13.4886 25.2076L12.8367 28.5742L11.3926 19.077L12.0552 15.6186Z" fill="#73141B"/>
<path d="M32.9572 20.9397C32.9132 20.6399 32.8108 20.4112 32.6449 20.2614C32.513 20.1418 32.347 20.0813 32.158 20.0817C32.1097 20.0817 32.0601 20.0855 32.0084 20.093C31.7552 20.1294 31.5611 20.2468 31.4423 20.4405C31.3557 20.5804 31.3137 20.7493 31.3137 20.9436C31.3137 21.018 31.3199 21.0964 31.3321 21.1785L31.688 23.6899L28.8823 24.1028L28.5264 21.5909C28.4832 21.299 28.3824 21.0726 28.2187 20.9187C28.0866 20.7939 27.9218 20.7302 27.7359 20.7307C27.6921 20.7307 27.6471 20.7341 27.601 20.7409C27.337 20.7789 27.1358 20.8941 27.0137 21.085C26.9251 21.2224 26.8823 21.392 26.8823 21.5894C26.8823 21.6652 26.8888 21.7452 26.9011 21.8297L27.8611 28.3612C27.9051 28.6614 28.0101 28.8896 28.1828 29.0371C28.3175 29.1524 28.4863 29.2103 28.6796 29.21C28.7325 29.21 28.7874 29.2058 28.8441 29.1974C29.0856 29.1625 29.2722 29.0456 29.3847 28.8521C29.4654 28.7146 29.5045 28.5494 29.5045 28.3603C29.5045 28.2846 29.4984 28.2052 29.4861 28.1221L29.0939 25.5417L31.8996 25.1293L32.292 27.7097C32.3352 28.0061 32.4392 28.233 32.6094 28.3825C32.7446 28.5013 32.9118 28.5612 33.1013 28.5609C33.15 28.5609 33.1998 28.5572 33.2513 28.5496C33.5037 28.5129 33.697 28.3972 33.8124 28.2051C33.8956 28.068 33.9357 27.9018 33.9357 27.7102C33.9357 27.6344 33.9296 27.5546 33.9174 27.4709L32.9572 20.9397ZM21.5464 24.5523C21.2162 25.3299 20.7804 25.8633 20.2412 26.1588C19.9522 26.3172 19.6561 26.3955 19.3498 26.3956C19.0837 26.3956 18.8093 26.3361 18.526 26.2163C17.9128 25.9549 17.5308 25.5347 17.3655 24.9421C17.3101 24.7434 17.2824 24.5345 17.2824 24.3149C17.2824 23.8798 17.3916 23.4028 17.6117 22.8837C17.9493 22.0877 18.39 21.5447 18.9296 21.2473C19.2179 21.0885 19.5142 21.0096 19.8215 21.0096C20.0906 21.0096 20.3687 21.0697 20.6567 21.192C21.266 21.4513 21.644 21.8722 21.8064 22.4674C21.8592 22.6621 21.8858 22.867 21.8858 23.0825C21.8858 23.5267 21.7735 24.0168 21.5464 24.5523ZM22.5061 20.6429C22.1619 20.2798 21.7438 19.9943 21.2534 19.7863C20.7667 19.5796 20.2746 19.4765 19.7787 19.4765L19.7558 19.4766C19.2523 19.4799 18.7546 19.592 18.264 19.812V19.8118C17.7506 20.0353 17.3031 20.3481 16.9234 20.7496C16.5437 21.1511 16.2345 21.6339 15.9958 22.1963C15.7604 22.7521 15.6296 23.3082 15.6054 23.8644C15.6026 23.9274 15.6012 23.9903 15.6012 24.053C15.6012 24.5439 15.6855 25.0247 15.8536 25.4947C16.032 25.9906 16.2951 26.42 16.6421 26.7819C16.9888 27.1439 17.4155 27.4319 17.9203 27.6454V27.6453C18.4031 27.8505 18.8934 27.9531 19.39 27.9528H19.4027C19.9036 27.9505 20.4003 27.8432 20.8915 27.6322L20.8919 27.6321L20.8922 27.6319C21.4088 27.4013 21.8594 27.0844 22.2436 26.6833C22.6276 26.2818 22.9381 25.8003 23.1754 25.2411C23.4127 24.6821 23.5419 24.1253 23.5632 23.5715C23.5652 23.5181 23.5662 23.4649 23.5662 23.4118C23.5662 22.9138 23.4783 22.4259 23.3022 21.9486C23.1158 21.4414 22.8502 21.0058 22.5061 20.6429ZM10.3526 27.0616C10.2762 26.9704 10.1735 26.903 10.0483 26.8593C9.91962 26.8144 9.76403 26.7928 9.58076 26.7928C9.40801 26.7928 9.21069 26.8119 8.98796 26.8501L6.43243 27.2869C6.45944 27.09 6.55724 26.8312 6.7297 26.5158C6.92225 26.1623 7.20615 25.7379 7.58118 25.2438L7.58143 25.2436C7.71014 25.0716 7.80849 24.9402 7.87645 24.8494C7.92531 24.789 7.99327 24.7001 8.08131 24.5825C8.66593 23.8157 9.02782 23.1913 9.16654 22.7011C9.24585 22.4232 9.29419 22.1432 9.31169 21.8612C9.31642 21.784 9.31864 21.7074 9.31864 21.6314C9.31864 21.4292 9.30208 21.2302 9.2686 21.0344C9.23818 20.856 9.19429 20.7076 9.13538 20.5885C9.07651 20.4696 9.00172 20.3792 8.90942 20.3222C8.80534 20.2588 8.65897 20.232 8.46736 20.2316C8.30923 20.2316 8.11959 20.2508 7.8976 20.2887L4.94429 20.7939C4.58662 20.8552 4.32254 20.9605 4.15408 21.1191C4.02014 21.2449 3.95096 21.4075 3.95167 21.5942C3.95167 21.643 3.95611 21.6935 3.96514 21.7456C4.00664 21.9966 4.13745 22.1806 4.34829 22.2742C4.47274 22.3303 4.62314 22.3572 4.79863 22.3572C4.91816 22.3572 5.04944 22.3447 5.19293 22.3202L7.66477 21.9034C7.66903 21.9471 7.67189 21.9907 7.67189 22.034C7.67189 22.1884 7.64514 22.3392 7.59156 22.4877C7.51818 22.6922 7.33485 22.9848 7.04274 23.3566C6.95992 23.4581 6.83314 23.6162 6.66226 23.8305C5.99566 24.638 5.51821 25.3265 5.22931 25.8992C5.22931 25.8994 5.22926 25.8994 5.22912 25.8997L5.22906 25.8999C5.02395 26.2941 4.88161 26.6824 4.80353 27.0646C4.75806 27.2875 4.73505 27.5016 4.73505 27.7069C4.73505 27.854 4.74688 27.9963 4.77043 28.1341C4.80431 28.3318 4.85309 28.4949 4.91883 28.6241C4.98457 28.7528 5.06842 28.8489 5.17189 28.9058C5.26821 28.9581 5.40984 28.9787 5.60477 28.9794C5.85222 28.9794 6.18533 28.9428 6.60693 28.8709L9.28665 28.4128C9.76115 28.3311 10.0912 28.2179 10.2829 28.0604C10.4362 27.9346 10.5156 27.7617 10.5148 27.5581C10.5148 27.5067 10.51 27.4535 10.5005 27.3981C10.4779 27.266 10.4289 27.1526 10.3526 27.0616ZM8.08141 24.5823L8.0816 24.5822L8.08131 24.5825H8.08115L8.08141 24.5823ZM42.8912 26.7654C42.5057 27.2312 41.9866 27.4625 41.3166 27.4633C40.6418 27.4625 40.1207 27.232 39.7331 26.7686C39.3466 26.3047 39.151 25.6669 39.1507 24.8485C39.151 24.0143 39.3458 23.3672 39.7302 22.8996C40.1156 22.4323 40.6383 22.2003 41.3166 22.1995C41.9866 22.2003 42.5055 22.4321 42.8912 22.8996C43.2758 23.3672 43.4709 24.0143 43.4709 24.8485C43.4709 25.6632 43.2763 26.3002 42.8912 26.7654ZM44.9588 23.2153C44.7598 22.715 44.465 22.2665 44.0753 21.8708C43.7023 21.4905 43.2829 21.2033 42.8201 21.0107C42.3564 20.8179 41.8554 20.7217 41.3173 20.7218C40.7754 20.7217 40.2695 20.8179 39.8025 21.0106C39.3356 21.2033 38.9165 21.4905 38.5471 21.871C38.1579 22.2628 37.8643 22.7098 37.6694 23.2098C37.4747 23.7104 37.377 24.2563 37.377 24.8468C37.377 25.4298 37.4749 25.9738 37.6726 26.4776C37.8693 26.9814 38.1613 27.4339 38.5471 27.8333C38.9086 28.2069 39.3233 28.4894 39.7882 28.6802C40.2533 28.8706 40.7636 28.966 41.3173 28.966C41.8511 28.966 42.3516 28.8706 42.8165 28.6802C43.2816 28.4896 43.7019 28.2072 44.075 27.8338C44.465 27.4339 44.7598 26.983 44.9588 26.4807C45.1581 25.9789 45.2576 25.4337 45.2576 24.8468C45.2576 24.26 45.1581 23.7158 44.9588 23.2153Z" fill="white"/>
<path d="M1.59961 20.5762L1.79125 19.6205L2.27955 17.1852L12.0557 15.6182L11.3931 19.0767L1.59961 20.5762Z" fill="#ED3239"/>
</g>
<defs>
<linearGradient id="paint0_linear_4326_303823" x1="36.3312" y1="19.0723" x2="46.311" y2="30.0671" gradientUnits="userSpaceOnUse">
<stop stop-color="#F5C20F"/>
<stop offset="0.00599861" stop-color="#F5C20F"/>
<stop offset="1" stop-color="#E68416"/>
</linearGradient>
<linearGradient id="paint1_linear_4326_303823" x1="25.2062" y1="20.4136" x2="35.4984" y2="28.6785" gradientUnits="userSpaceOnUse">
<stop stop-color="#4189CF"/>
<stop offset="0.005618" stop-color="#4189CF"/>
<stop offset="0.0297292" stop-color="#4189CF"/>
<stop offset="1" stop-color="#2B61A4"/>
</linearGradient>
<linearGradient id="paint2_linear_4326_303823" x1="19.594" y1="20.8608" x2="19.594" y2="29.8796" gradientUnits="userSpaceOnUse">
<stop stop-color="#34A43F"/>
<stop offset="0.975753" stop-color="#288B51"/>
<stop offset="1" stop-color="#288B51"/>
</linearGradient>
<linearGradient id="paint3_linear_4326_303823" x1="6.51049" y1="19.9772" x2="8.0615" y2="29.3408" gradientUnits="userSpaceOnUse">
<stop stop-color="#DA1B31"/>
<stop offset="1" stop-color="#BB1E35"/>
</linearGradient>
<clipPath id="clip0_4326_303823">
<rect width="46.3897" height="16" fill="white" transform="translate(1.59961 14.1992)"/>
</clipPath>
</defs>
</svg>
