<svg width="32" height="32" viewBox="0 0 32 32" fill="none" xmlns="http://www.w3.org/2000/svg">
<g clip-path="url(#clip0_4326_304548)">
<path d="M31.2002 12.3963V19.5595L30.2271 20.5332V13.5197L31.2002 12.3963Z" fill="#DB701B"/>
<mask id="mask0_4326_304548" style="mask-type:alpha" maskUnits="userSpaceOnUse" x="23" y="13" width="8" height="8">
<path d="M23.6777 13.5216V20.5352H30.2274V13.5216H23.6777Z" fill="white"/>
</mask>
<g mask="url(#mask0_4326_304548)">
<path d="M23.6777 13.5216V20.5352H30.2274V13.5216H23.6777Z" fill="url(#paint0_linear_4326_304548)"/>
</g>
<path d="M24.7026 12.4019L23.6768 13.5205H30.2265L31.1996 12.3972L24.7026 12.4019Z" fill="#F9D506"/>
<path d="M16.5909 12.7093L23.0336 11.8137L22.4946 13.3585L16.1401 14.2256L16.5909 12.7093Z" fill="#98CCEE"/>
<mask id="mask1_4326_304548" style="mask-type:alpha" maskUnits="userSpaceOnUse" x="16" y="13" width="8" height="8">
<path d="M22.4951 13.3594L23.3876 19.6426L17.0348 20.5352L16.1406 14.2265L22.4951 13.3594Z" fill="white"/>
</mask>
<g mask="url(#mask1_4326_304548)">
<path d="M22.4951 13.3594L23.3876 19.6426L17.0348 20.5352L16.1406 14.2265L22.4951 13.3594Z" fill="url(#paint1_linear_4326_304548)"/>
</g>
<path d="M22.4941 13.3584L23.3867 19.6416L23.8737 18.2853L23.0382 11.8516L23.0332 11.8137" fill="#4498D9"/>
<mask id="mask2_4326_304548" style="mask-type:alpha" maskUnits="userSpaceOnUse" x="8" y="12" width="9" height="9">
<path d="M11.1497 12.1738L16.8534 14.7473L14.2797 20.5898L8.57617 18.0164L11.1497 12.1738Z" fill="white"/>
</mask>
<g mask="url(#mask2_4326_304548)">
<path d="M11.1497 12.1738L16.8534 14.7473L14.2797 20.5898L8.57617 18.0164L11.1497 12.1738Z" fill="url(#paint2_linear_4326_304548)"/>
</g>
<path d="M10.5571 10.1737L11.1492 12.1736L16.8528 14.7471L16.3733 12.8362L10.5571 10.1737Z" fill="#91D692"/>
<path d="M10.5578 10.1721L8.26221 15.6204L8.57628 18.0146L11.1498 12.172L10.5578 10.1721Z" fill="#64C65E"/>
<mask id="mask3_4326_304548" style="mask-type:alpha" maskUnits="userSpaceOnUse" x="0" y="13" width="9" height="8">
<path d="M7.37516 13.3484L8.31527 19.5312L2.01192 20.5195L0.999512 14.3246L7.37516 13.3484Z" fill="white"/>
</mask>
<g mask="url(#mask3_4326_304548)">
<path d="M7.37516 13.3484L8.31527 19.5312L2.01192 20.5195L0.999512 14.3246L7.37516 13.3484Z" fill="url(#paint3_linear_4326_304548)"/>
</g>
<path d="M7.80685 11.0979L8.74004 17.3405L8.3156 19.5322L7.37549 13.3494L7.80685 11.0979Z" fill="#73141B"/>
<path d="M21.4142 14.5613C21.3855 14.3661 21.3189 14.2173 21.2109 14.1197C21.125 14.0419 21.0169 14.0024 20.8939 14.0027C20.8624 14.0027 20.8301 14.0052 20.7965 14.0101C20.6316 14.0337 20.5053 14.1102 20.4279 14.2363C20.3716 14.3274 20.3443 14.4373 20.3443 14.5638C20.3443 14.6123 20.3483 14.6633 20.3562 14.7168L20.5879 16.3517L18.7614 16.6205L18.5297 14.9852C18.5016 14.7952 18.436 14.6478 18.3294 14.5476C18.2434 14.4664 18.1361 14.4249 18.0151 14.4252C17.9865 14.4252 17.9572 14.4275 17.9273 14.4319C17.7553 14.4566 17.6244 14.5316 17.5449 14.6559C17.4872 14.7453 17.4594 14.8558 17.4594 14.9842C17.4594 15.0336 17.4636 15.0857 17.4716 15.1407L18.0965 19.3927C18.1252 19.5882 18.1936 19.7368 18.306 19.8328C18.3937 19.9078 18.5036 19.9455 18.6294 19.9453C18.6638 19.9453 18.6996 19.9426 18.7365 19.9371C18.8937 19.9144 19.0152 19.8383 19.0884 19.7123C19.1409 19.6228 19.1665 19.5152 19.1665 19.3921C19.1665 19.3429 19.1625 19.2912 19.1545 19.2371L18.8991 17.5572L20.7256 17.2888L20.9811 18.9686C21.0093 19.1616 21.077 19.3093 21.1878 19.4066C21.2758 19.484 21.3846 19.523 21.508 19.5228C21.5397 19.5228 21.5721 19.5203 21.6057 19.5154C21.7699 19.4915 21.8958 19.4162 21.9709 19.2911C22.0251 19.2019 22.0512 19.0937 22.0512 18.9689C22.0512 18.9196 22.0472 18.8677 22.0393 18.8132L21.4142 14.5613ZM13.9856 16.9131C13.7707 17.4193 13.4869 17.7666 13.1359 17.959C12.9478 18.0621 12.755 18.1131 12.5556 18.1132C12.3824 18.1132 12.2037 18.0744 12.0193 17.9964C11.6201 17.8262 11.3714 17.5527 11.2638 17.1669C11.2278 17.0375 11.2097 16.9015 11.2097 16.7585C11.2097 16.4753 11.2808 16.1648 11.4241 15.8269C11.6439 15.3086 11.9308 14.9551 12.2821 14.7616C12.4697 14.6581 12.6626 14.6068 12.8627 14.6068C13.0379 14.6068 13.2189 14.6459 13.4064 14.7255C13.8031 14.8943 14.0492 15.1684 14.1549 15.5559C14.1892 15.6826 14.2065 15.8159 14.2065 15.9563C14.2065 16.2454 14.1334 16.5645 13.9856 16.9131ZM14.6104 14.3681C14.3863 14.1317 14.1141 13.9458 13.7949 13.8104C13.478 13.6758 13.1577 13.6087 12.8348 13.6087L12.8199 13.6088C12.4921 13.6109 12.1681 13.6839 11.8488 13.8271V13.827C11.5145 13.9725 11.2232 14.1761 10.976 14.4376C10.7288 14.6989 10.5275 15.0132 10.3721 15.3793C10.2189 15.7412 10.1337 16.1032 10.1179 16.4653C10.1161 16.5063 10.1153 16.5473 10.1153 16.5881C10.1153 16.9076 10.1701 17.2207 10.2795 17.5266C10.3957 17.8495 10.567 18.129 10.7929 18.3646C11.0186 18.6003 11.2964 18.7877 11.625 18.9268V18.9267C11.9393 19.0603 12.2585 19.1271 12.5818 19.1269H12.5901C12.9162 19.1254 13.2395 19.0555 13.5593 18.9182L13.5596 18.9181L13.5597 18.918C13.8961 18.7679 14.1894 18.5615 14.4395 18.3004C14.6895 18.039 14.8917 17.7256 15.0461 17.3616C15.2006 16.9976 15.2847 16.6351 15.2986 16.2746C15.2999 16.2399 15.3005 16.2052 15.3005 16.1706C15.3005 15.8465 15.2433 15.5288 15.1287 15.2181C15.0073 14.8879 14.8344 14.6043 14.6104 14.3681ZM6.69836 18.5467C6.64863 18.4873 6.58176 18.4435 6.50024 18.415C6.41646 18.3858 6.31516 18.3717 6.19586 18.3717C6.08339 18.3717 5.95494 18.3842 5.80993 18.409L4.14626 18.6934C4.16384 18.5652 4.22751 18.3967 4.33978 18.1914C4.46513 17.9613 4.64996 17.685 4.89411 17.3633L4.89427 17.3632C4.97806 17.2512 5.04209 17.1657 5.08633 17.1066C5.11814 17.0672 5.16238 17.0093 5.2197 16.9328C5.60029 16.4336 5.83589 16.0271 5.9262 15.708C5.97782 15.527 6.00929 15.3448 6.02069 15.1612C6.02377 15.1109 6.02521 15.0611 6.02521 15.0116C6.02521 14.88 6.01443 14.7504 5.99264 14.6229C5.97283 14.5068 5.94426 14.4102 5.90591 14.3327C5.86758 14.2552 5.81889 14.1964 5.75881 14.1593C5.69105 14.118 5.59576 14.1006 5.47102 14.1003C5.36808 14.1003 5.24462 14.1128 5.1001 14.1374L3.17746 14.4664C2.94462 14.5063 2.7727 14.5748 2.66303 14.6781C2.57583 14.7599 2.53079 14.8659 2.53125 14.9874C2.53125 15.0191 2.53415 15.052 2.54002 15.0859C2.56704 15.2494 2.6522 15.3691 2.78946 15.4301C2.87048 15.4666 2.96839 15.4841 3.08264 15.4841C3.16045 15.4841 3.24592 15.4759 3.33933 15.46L4.94853 15.1887C4.9513 15.2171 4.95316 15.2455 4.95316 15.2737C4.95316 15.3742 4.93575 15.4724 4.90086 15.569C4.85309 15.7022 4.73375 15.8926 4.54358 16.1347C4.48966 16.2008 4.40713 16.3037 4.29588 16.4432C3.86191 16.9689 3.55109 17.4171 3.36302 17.79C3.36302 17.7901 3.36298 17.7901 3.36289 17.7903L3.36285 17.7904C3.22932 18.0471 3.13666 18.2998 3.08583 18.5487C3.05622 18.6938 3.04125 18.8331 3.04125 18.9668C3.04125 19.0626 3.04895 19.1552 3.06428 19.2449C3.08633 19.3736 3.11809 19.4798 3.16089 19.5639C3.20368 19.6477 3.25827 19.7102 3.32563 19.7473C3.38834 19.7814 3.48054 19.7948 3.60744 19.7952C3.76854 19.7952 3.98539 19.7714 4.25986 19.7246L6.00439 19.4264C6.31329 19.3731 6.52816 19.2995 6.65298 19.1969C6.75276 19.115 6.80448 19.0025 6.80394 18.87C6.80394 18.8365 6.80083 18.8018 6.7946 18.7658C6.77994 18.6797 6.74803 18.6059 6.69836 18.5467ZM5.21976 16.9327L5.21988 16.9326L5.2197 16.9328H5.21959L5.21976 16.9327ZM27.8813 18.3539C27.6303 18.6571 27.2924 18.8077 26.8562 18.8082C26.417 18.8077 26.0777 18.6576 25.8253 18.356C25.5737 18.054 25.4464 17.6388 25.4462 17.106C25.4464 16.5629 25.5733 16.1416 25.8235 15.8372C26.0744 15.533 26.4147 15.382 26.8562 15.3814C27.2924 15.382 27.6302 15.5329 27.8813 15.8372C28.1317 16.1416 28.2587 16.5629 28.2587 17.106C28.2587 17.6363 28.132 18.051 27.8813 18.3539ZM29.2274 16.0427C29.0978 15.717 28.9059 15.4251 28.6522 15.1675C28.4093 14.9198 28.1363 14.7329 27.835 14.6075C27.5332 14.482 27.207 14.4193 26.8567 14.4194C26.5039 14.4193 26.1746 14.482 25.8705 14.6074C25.5666 14.7329 25.2938 14.9199 25.0533 15.1676C24.7999 15.4226 24.6088 15.7137 24.4819 16.0392C24.3551 16.365 24.2915 16.7204 24.2915 17.1049C24.2915 17.4844 24.3553 17.8386 24.4839 18.1665C24.612 18.4945 24.8021 18.789 25.0533 19.0491C25.2886 19.2923 25.5586 19.4762 25.8612 19.6004C26.164 19.7244 26.4962 19.7865 26.8567 19.7865C27.2042 19.7865 27.5301 19.7244 27.8327 19.6004C28.1355 19.4763 28.4091 19.2925 28.652 19.0494C28.9059 18.7891 29.0978 18.4955 29.2274 18.1685C29.3571 17.8418 29.4219 17.4869 29.4219 17.1049C29.4219 16.7228 29.3571 16.3685 29.2274 16.0427Z" fill="white"/>
<path d="M1 14.3252L1.12476 13.7031L1.44265 12.1176L7.80701 11.0975L7.37564 13.349L1 14.3252Z" fill="#ED3239"/>
</g>
<defs>
<linearGradient id="paint0_linear_4326_304548" x1="23.6108" y1="13.3467" x2="30.1077" y2="20.5044" gradientUnits="userSpaceOnUse">
<stop stop-color="#F5C20F"/>
<stop offset="0.00599861" stop-color="#F5C20F"/>
<stop offset="1" stop-color="#E68416"/>
</linearGradient>
<linearGradient id="paint1_linear_4326_304548" x1="16.3687" y1="14.2199" x2="23.069" y2="19.6005" gradientUnits="userSpaceOnUse">
<stop stop-color="#4189CF"/>
<stop offset="0.005618" stop-color="#4189CF"/>
<stop offset="0.0297292" stop-color="#4189CF"/>
<stop offset="1" stop-color="#2B61A4"/>
</linearGradient>
<linearGradient id="paint2_linear_4326_304548" x1="12.7148" y1="14.5111" x2="12.7148" y2="20.3824" gradientUnits="userSpaceOnUse">
<stop stop-color="#34A43F"/>
<stop offset="0.975753" stop-color="#288B51"/>
<stop offset="1" stop-color="#288B51"/>
</linearGradient>
<linearGradient id="paint3_linear_4326_304548" x1="4.19687" y1="13.9355" x2="5.20659" y2="20.0312" gradientUnits="userSpaceOnUse">
<stop stop-color="#DA1B31"/>
<stop offset="1" stop-color="#BB1E35"/>
</linearGradient>
<clipPath id="clip0_4326_304548">
<rect width="30.2002" height="10.4162" fill="white" transform="translate(1 10.1729)"/>
</clipPath>
</defs>
</svg>
