<?xml version="1.0" encoding="UTF-8"?>
<svg xmlns="http://www.w3.org/2000/svg" xmlns:xlink="http://www.w3.org/1999/xlink" width="127px" height="32px" viewBox="0 0 127 32" version="1.1">
<g id="surface1">
<path style=" stroke:none;fill-rule:evenodd;fill:rgb(0%,40.392157%,54.901961%);fill-opacity:1;" d="M 20.125 20.101562 C 19.207031 20.082031 18.492188 20.171875 17.890625 20.425781 C 17.71875 20.496094 17.445312 20.496094 17.421875 20.71875 C 17.511719 20.808594 17.527344 20.960938 17.609375 21.085938 C 17.765625 21.351562 17.96875 21.589844 18.207031 21.789062 L 18.945312 22.324219 C 19.394531 22.597656 19.898438 22.757812 20.339844 23.035156 C 20.59375 23.195312 20.839844 23.402344 21.027344 23.574219 C 21.152344 23.664062 21.234375 23.816406 21.394531 23.871094 L 21.394531 23.835938 C 21.308594 23.734375 21.289062 23.582031 21.207031 23.472656 L 20.863281 23.140625 C 20.527344 22.691406 20.125 22.300781 19.671875 21.976562 C 19.304688 21.71875 18.5 21.375 18.347656 20.953125 L 18.324219 20.933594 C 18.582031 20.910156 18.878906 20.816406 19.117188 20.746094 C 19.511719 20.640625 19.863281 20.664062 20.269531 20.558594 L 20.820312 20.398438 L 20.820312 20.296875 C 20.613281 20.089844 20.460938 19.8125 20.25 19.617188 C 19.664062 19.113281 19.023438 18.613281 18.355469 18.199219 C 17.996094 17.972656 17.539062 17.820312 17.160156 17.625 C 17.023438 17.554688 16.796875 17.523438 16.714844 17.402344 C 16.507812 17.148438 16.390625 16.816406 16.246094 16.519531 L 15.300781 14.511719 C 15.09375 14.0625 14.96875 13.613281 14.714844 13.199219 C 13.648438 11.382812 12.113281 9.890625 10.269531 8.882812 C 9.84375 8.640625 9.339844 8.535156 8.800781 8.410156 L 7.941406 8.363281 C 7.753906 8.28125 7.574219 8.066406 7.410156 7.960938 C 6.753906 7.546875 5.066406 6.648438 4.652344 7.835938 C 4.34375 8.585938 5.113281 9.324219 5.375 9.707031 C 5.570312 9.96875 5.824219 10.273438 5.960938 10.570312 C 6.042969 10.761719 6.066406 10.972656 6.148438 11.179688 L 6.746094 12.722656 C 6.871094 12.96875 7.015625 13.207031 7.175781 13.433594 C 7.265625 13.558594 7.429688 13.621094 7.464844 13.828125 C 7.304688 14.054688 7.292969 14.402344 7.203125 14.691406 C 6.789062 15.992188 6.945312 17.613281 7.53125 18.566406 C 7.71875 18.855469 8.222656 19.488281 8.738281 19.246094 C 9.257812 19.035156 9.140625 18.378906 9.289062 17.804688 C 9.324219 17.667969 9.304688 17.578125 9.375 17.480469 L 9.375 17.5 L 9.84375 18.457031 C 10.199219 19.023438 10.820312 19.609375 11.335938 20 C 11.613281 20.207031 11.832031 20.566406 12.179688 20.691406 L 12.179688 20.65625 L 12.128906 20.65625 C 12.0625 20.550781 11.957031 20.503906 11.867188 20.425781 C 11.648438 20.214844 11.449219 19.980469 11.269531 19.734375 C 10.78125 19.074219 10.351562 18.371094 9.980469 17.640625 C 9.792969 17.28125 9.636719 16.890625 9.484375 16.53125 C 9.414062 16.394531 9.414062 16.1875 9.296875 16.117188 C 9.125 16.375 8.871094 16.589844 8.746094 16.898438 C 8.527344 17.398438 8.503906 18.007812 8.421875 18.640625 C 8.007812 18.574219 7.882812 18.191406 7.746094 17.867188 C 7.402344 17.050781 7.347656 15.722656 7.644531 14.789062 C 7.726562 14.546875 8.070312 13.785156 7.933594 13.558594 C 7.863281 13.335938 7.636719 13.210938 7.503906 13.039062 C 7.355469 12.816406 7.195312 12.542969 7.09375 12.300781 C 6.890625 11.648438 6.683594 10.929688 6.390625 10.285156 C 6.25 9.988281 6.011719 9.683594 5.808594 9.40625 C 5.597656 9.089844 5.355469 8.867188 5.183594 8.507812 C 5.121094 8.371094 5.046875 8.164062 5.132812 8.023438 C 5.15625 7.933594 5.203125 7.898438 5.292969 7.871094 C 5.445312 7.746094 5.863281 7.90625 6.015625 7.976562 C 6.445312 8.148438 6.796875 8.308594 7.152344 8.550781 C 7.3125 8.667969 7.484375 8.882812 7.691406 8.945312 L 7.933594 8.945312 C 8.296875 9.027344 8.710938 8.964844 9.054688 9.070312 C 9.664062 9.261719 10.214844 9.554688 10.710938 9.863281 C 12.230469 10.835938 13.46875 12.199219 14.292969 13.808594 C 14.433594 14.070312 14.488281 14.3125 14.617188 14.589844 L 15.398438 16.285156 C 15.636719 16.824219 15.867188 17.375 16.210938 17.828125 C 16.382812 18.066406 17.070312 18.191406 17.382812 18.324219 C 17.609375 18.429688 17.96875 18.519531 18.175781 18.648438 L 19.324219 19.429688 C 19.511719 19.570312 20.015625 19.859375 20.117188 20.089844 Z M 20.125 20.101562 "/>
<path style=" stroke:none;fill-rule:evenodd;fill:rgb(0%,40.392157%,54.901961%);fill-opacity:1;" d="M 8.410156 10.078125 C 8.214844 10.078125 8.078125 10.097656 7.941406 10.132812 L 7.941406 10.15625 L 7.960938 10.15625 C 8.050781 10.339844 8.214844 10.464844 8.324219 10.625 L 8.585938 11.179688 L 8.609375 11.15625 C 8.765625 11.039062 8.847656 10.859375 8.847656 10.582031 C 8.78125 10.5 8.765625 10.425781 8.710938 10.339844 C 8.644531 10.222656 8.492188 10.167969 8.402344 10.078125 Z M 8.410156 10.078125 "/>
<path style=" stroke:none;fill-rule:evenodd;fill:rgb(80.784314%,54.509804%,17.254902%);fill-opacity:1;" d="M 69.363281 23.105469 L 79.246094 23.105469 C 80.402344 23.105469 81.503906 22.867188 82.402344 22.445312 C 83.898438 21.753906 84.605469 20.835938 84.605469 19.625 L 84.605469 17.09375 C 84.605469 16.125 83.792969 15.191406 82.167969 14.5625 C 81.230469 14.226562 80.246094 14.058594 79.25 14.0625 L 75.101562 14.0625 C 73.710938 14.0625 73.054688 13.648438 72.871094 12.722656 C 72.84375 12.617188 72.84375 12.511719 72.84375 12.402344 L 72.84375 10.847656 C 72.84375 10.761719 72.84375 10.660156 72.871094 10.554688 C 73.054688 9.84375 73.421875 9.65625 74.632812 9.519531 L 84.75 9.519531 L 84.75 7.222656 L 75.125 7.222656 C 73.730469 7.222656 72.988281 7.304688 72.339844 7.511719 C 70.3125 8.136719 69.421875 9.144531 69.421875 10.914062 L 69.421875 12.921875 C 69.421875 14.476562 71.160156 15.800781 74.109375 16.105469 C 74.425781 16.132812 74.765625 16.132812 75.109375 16.132812 L 78.660156 16.132812 C 78.796875 16.132812 78.921875 16.132812 79.023438 16.160156 C 80.097656 16.261719 80.574219 16.449219 80.886719 16.851562 C 81.09375 17.058594 81.148438 17.246094 81.148438 17.488281 L 81.148438 19.492188 C 81.148438 19.726562 80.988281 20.046875 80.664062 20.308594 C 80.339844 20.574219 79.851562 20.757812 79.191406 20.792969 C 79.050781 20.792969 78.984375 20.820312 78.84375 20.820312 L 69.363281 20.820312 Z M 105.992188 19.121094 C 105.992188 21.472656 107.757812 22.785156 111.277344 23.046875 L 112.277344 23.105469 L 121.210938 23.105469 L 121.210938 20.820312 L 112.203125 20.820312 C 110.136719 20.820312 109.445312 20.324219 109.445312 19.105469 L 109.445312 7.230469 L 106 7.230469 L 106 19.125 Z M 86.785156 19.222656 L 86.785156 11.054688 C 86.785156 8.980469 88.253906 7.707031 91.125 7.320312 L 92.042969 7.261719 L 98.5625 7.261719 C 98.90625 7.261719 99.199219 7.289062 99.527344 7.320312 C 102.394531 7.714844 103.835938 8.980469 103.835938 11.054688 L 103.835938 19.230469 C 103.835938 20.917969 103.230469 21.816406 101.808594 22.414062 L 105.171875 25.46875 L 101.203125 25.46875 L 98.46875 22.992188 L 95.710938 23.152344 L 92.03125 23.152344 C 91.421875 23.152344 90.742188 23.082031 89.960938 22.890625 C 87.785156 22.28125 86.703125 21.117188 86.703125 19.222656 Z M 90.492188 19.042969 C 90.492188 19.148438 90.546875 19.25 90.574219 19.390625 C 90.761719 20.335938 91.652344 20.863281 93.015625 20.863281 L 96.117188 20.863281 L 93.277344 18.277344 L 97.246094 18.277344 L 99.742188 20.542969 C 100.222656 20.28125 100.5 19.910156 100.609375 19.4375 C 100.636719 19.335938 100.636719 19.203125 100.636719 19.09375 L 100.636719 11.277344 C 100.636719 11.171875 100.636719 11.066406 100.609375 10.957031 C 100.425781 10.058594 99.535156 9.558594 98.199219 9.558594 L 93.027344 9.558594 C 91.511719 9.558594 90.507812 10.21875 90.507812 11.277344 Z M 90.492188 19.042969 "/>
<path style=" stroke:none;fill-rule:evenodd;fill:rgb(0%,40.392157%,54.901961%);fill-opacity:1;" d="M 23.742188 23.117188 L 27.160156 23.117188 L 27.160156 9.53125 L 32.496094 21.375 C 33.101562 22.800781 33.972656 23.324219 35.652344 23.324219 C 37.335938 23.324219 38.148438 22.800781 38.78125 21.375 L 44.089844 9.53125 L 44.089844 23.117188 L 47.535156 23.117188 L 47.535156 9.53125 C 47.535156 8.21875 47.011719 7.582031 45.90625 7.234375 C 43.308594 6.445312 41.566406 7.132812 40.78125 8.894531 L 35.542969 20.605469 L 30.496094 8.894531 C 29.738281 7.132812 27.976562 6.445312 25.347656 7.234375 C 24.273438 7.582031 23.742188 8.203125 23.742188 9.53125 Z M 50.367188 12.0625 L 53.8125 12.0625 L 53.8125 19.535156 C 53.785156 19.949219 53.949219 20.90625 55.878906 20.933594 L 63.269531 20.933594 L 63.269531 12.007812 L 66.714844 12.007812 L 66.714844 24.21875 C 66.714844 27.226562 63.007812 27.882812 61.269531 27.910156 L 50.449219 27.910156 L 50.449219 25.613281 L 61.304688 25.613281 C 63.511719 25.378906 63.25 24.273438 63.25 23.898438 L 63.25 23 L 55.964844 23 C 52.574219 22.972656 50.394531 21.480469 50.367188 19.75 Z M 50.367188 12.0625 "/>
</g>
</svg>
