<?xml version="1.0" encoding="UTF-8"?>
<svg xmlns="http://www.w3.org/2000/svg" xmlns:xlink="http://www.w3.org/1999/xlink" width="48px" height="48px" viewBox="0 0 48 48" version="1.1">
<g id="surface1">
<path style=" stroke:none;fill-rule:evenodd;fill:rgb(0%,40.392157%,54.901961%);fill-opacity:1;" d="M 44.214844 37.390625 C 41.601562 37.316406 39.578125 37.585938 37.878906 38.296875 C 37.390625 38.496094 36.605469 38.496094 36.542969 39.109375 C 36.804688 39.367188 36.835938 39.789062 37.0625 40.148438 C 37.457031 40.796875 38.140625 41.671875 38.761719 42.125 L 40.851562 43.617188 C 42.125 44.398438 43.558594 44.851562 44.800781 45.628906 C 45.519531 46.085938 46.238281 46.667969 46.957031 47.15625 C 47.320312 47.414062 47.542969 47.835938 48 48 L 48 47.902344 C 47.773438 47.609375 47.707031 47.1875 47.476562 46.863281 L 46.496094 45.921875 C 45.550781 44.65625 44.375 43.554688 43.101562 42.644531 C 42.058594 41.933594 39.773438 40.957031 39.347656 39.757812 L 39.285156 39.6875 C 40.003906 39.613281 40.851562 39.363281 41.539062 39.167969 C 42.648438 38.875 43.660156 38.941406 44.800781 38.648438 L 46.367188 38.195312 L 46.367188 37.902344 C 45.78125 37.320312 45.355469 36.539062 44.738281 35.988281 C 43.070312 34.5625 41.242188 33.167969 39.347656 32 C 38.335938 31.351562 37.03125 30.925781 35.953125 30.375 C 35.5625 30.183594 34.910156 30.085938 34.679688 29.761719 C 34.09375 29.046875 33.765625 28.105469 33.34375 27.261719 L 30.664062 21.617188 C 30.078125 20.351562 29.71875 19.085938 29 17.917969 C 25.636719 12.402344 21.980469 9.0625 16.367188 5.785156 C 15.160156 5.101562 13.722656 4.808594 12.195312 4.453125 L 9.746094 4.324219 C 9.226562 4.097656 8.703125 3.480469 8.246094 3.1875 C 6.386719 2.019531 1.585938 -0.511719 0.214844 2.824219 C -0.667969 4.933594 1.519531 7.007812 2.261719 8.078125 C 2.820312 8.824219 3.535156 9.667969 3.929688 10.511719 C 4.148438 11.0625 4.222656 11.648438 4.449219 12.234375 C 4.972656 13.660156 5.460938 15.25 6.148438 16.582031 C 6.515625 17.261719 6.898438 17.976562 7.355469 18.59375 C 7.617188 18.957031 8.074219 19.113281 8.171875 19.695312 C 7.714844 20.34375 7.683594 21.316406 7.421875 22.128906 C 6.246094 25.796875 6.703125 30.335938 8.367188 33.035156 C 8.890625 33.847656 10.125 35.632812 11.796875 34.949219 C 13.265625 34.367188 12.9375 32.515625 13.363281 30.894531 C 13.460938 30.507812 13.394531 30.246094 13.589844 29.988281 L 13.589844 30.058594 L 14.929688 32.75 C 15.941406 34.339844 17.703125 35.996094 19.171875 37.101562 C 19.957031 37.683594 20.574219 38.691406 21.554688 39.046875 L 21.554688 38.949219 L 21.492188 38.949219 C 21.292969 38.65625 21 38.527344 20.738281 38.300781 C 20.152344 37.714844 19.5 37 19.042969 36.351562 C 17.671875 34.535156 16.464844 32.523438 15.386719 30.449219 C 14.863281 29.441406 14.40625 28.339844 13.984375 27.335938 C 13.785156 26.945312 13.785156 26.359375 13.460938 26.167969 C 12.96875 26.878906 12.253906 27.496094 11.890625 28.371094 C 11.269531 29.765625 11.207031 31.488281 10.980469 33.273438 C 10.847656 33.304688 10.90625 33.273438 10.847656 33.34375 C 9.804688 33.085938 9.445312 32.011719 9.050781 31.105469 C 8.074219 28.800781 7.910156 25.105469 8.757812 22.445312 C 8.984375 21.761719 9.964844 19.621094 9.574219 18.972656 C 9.378906 18.355469 8.726562 18 8.367188 17.511719 C 7.941406 16.894531 7.484375 16.117188 7.191406 15.4375 C 6.410156 13.617188 6.019531 11.609375 5.167969 9.789062 C 4.777344 8.945312 4.089844 8.070312 3.535156 7.292969 C 2.914062 6.417969 2.230469 5.800781 1.742188 4.761719 C 1.578125 4.398438 1.347656 3.820312 1.609375 3.433594 C 1.675781 3.171875 1.804688 3.066406 2.066406 3.011719 C 2.492188 2.648438 3.699219 3.109375 4.125 3.300781 C 5.332031 3.789062 6.34375 4.242188 7.355469 4.921875 C 7.8125 5.246094 8.300781 5.863281 8.890625 6.027344 L 9.574219 6.027344 C 10.621094 6.253906 11.796875 6.097656 12.773438 6.390625 C 14.503906 6.941406 16.070312 7.753906 17.476562 8.628906 C 21.75 11.320312 25.277344 15.152344 27.660156 19.726562 C 28.050781 20.472656 28.214844 21.152344 28.574219 21.933594 C 29.261719 23.523438 30.109375 25.144531 30.792969 26.703125 C 31.480469 28.226562 32.132812 29.785156 33.113281 31.050781 C 33.601562 31.730469 35.558594 32.085938 36.441406 32.445312 C 37.09375 32.734375 38.105469 32.996094 38.695312 33.355469 C 39.804688 34.035156 40.914062 34.8125 41.957031 35.558594 C 42.480469 35.949219 44.113281 36.757812 44.210938 37.40625 Z M 10.921875 9.195312 C 10.472656 9.191406 10.023438 9.246094 9.585938 9.359375 L 9.585938 9.429688 L 9.648438 9.429688 C 9.910156 9.949219 10.367188 10.308594 10.695312 10.761719 L 11.445312 12.320312 L 11.511719 12.246094 C 11.96875 11.921875 12.195312 11.402344 12.195312 10.625 C 12 10.398438 11.96875 10.171875 11.804688 9.945312 C 11.609375 9.621094 11.183594 9.457031 10.921875 9.199219 Z M 10.921875 9.195312 "/>
</g>
</svg>
