<?xml version="1.0" encoding="UTF-8"?>
<svg xmlns="http://www.w3.org/2000/svg" xmlns:xlink="http://www.w3.org/1999/xlink" width="20px" height="20px" viewBox="0 0 20 20" version="1.1">
<g id="surface1">
<path style=" stroke:none;fill-rule:evenodd;fill:rgb(0%,40.392157%,54.901961%);fill-opacity:1;" d="M 18.421875 15.578125 C 17.335938 15.546875 16.492188 15.660156 15.785156 15.957031 C 15.578125 16.039062 15.253906 16.039062 15.226562 16.296875 C 15.335938 16.402344 15.347656 16.578125 15.445312 16.726562 C 15.605469 17 15.890625 17.363281 16.152344 17.550781 L 17.019531 18.175781 C 17.550781 18.5 18.148438 18.6875 18.667969 19.011719 C 18.964844 19.203125 19.265625 19.445312 19.566406 19.648438 C 19.71875 19.757812 19.808594 19.933594 20 20 L 20 19.957031 C 19.90625 19.835938 19.878906 19.660156 19.78125 19.527344 L 19.375 19.132812 C 18.980469 18.605469 18.488281 18.148438 17.960938 17.769531 C 17.523438 17.472656 16.574219 17.066406 16.394531 16.566406 L 16.367188 16.535156 C 16.667969 16.503906 17.019531 16.402344 17.308594 16.320312 C 17.769531 16.199219 18.191406 16.226562 18.667969 16.101562 L 19.320312 15.914062 L 19.320312 15.792969 C 19.074219 15.550781 18.898438 15.226562 18.640625 14.996094 C 17.945312 14.402344 17.183594 13.820312 16.394531 13.332031 C 15.972656 13.0625 15.429688 12.886719 14.980469 12.65625 C 14.816406 12.574219 14.546875 12.535156 14.449219 12.398438 C 14.207031 12.101562 14.070312 11.710938 13.894531 11.359375 L 12.777344 9.007812 C 12.53125 8.480469 12.382812 7.953125 12.082031 7.464844 C 10.683594 5.167969 9.160156 3.777344 6.820312 2.410156 C 6.316406 2.125 5.71875 2.003906 5.082031 1.855469 L 4.0625 1.800781 C 3.84375 1.707031 3.625 1.449219 3.4375 1.328125 C 2.660156 0.839844 0.660156 -0.210938 0.0898438 1.175781 C -0.277344 2.054688 0.632812 2.921875 0.941406 3.367188 C 1.175781 3.675781 1.472656 4.027344 1.636719 4.378906 C 1.726562 4.609375 1.757812 4.855469 1.855469 5.097656 C 2.070312 5.691406 2.277344 6.355469 2.5625 6.910156 C 2.714844 7.191406 2.875 7.492188 3.066406 7.746094 C 3.171875 7.898438 3.363281 7.964844 3.40625 8.207031 C 3.214844 8.476562 3.199219 8.882812 3.09375 9.21875 C 2.601562 10.75 2.792969 12.640625 3.488281 13.765625 C 3.703125 14.101562 4.21875 14.847656 4.914062 14.5625 C 5.527344 14.320312 5.390625 13.550781 5.566406 12.871094 C 5.609375 12.710938 5.582031 12.601562 5.664062 12.496094 L 5.664062 12.523438 L 6.21875 13.648438 C 6.640625 14.308594 7.375 15 7.988281 15.457031 C 8.316406 15.703125 8.574219 16.121094 8.980469 16.269531 L 8.980469 16.226562 L 8.953125 16.226562 C 8.871094 16.105469 8.75 16.054688 8.640625 15.957031 C 8.398438 15.714844 8.125 15.417969 7.933594 15.148438 C 7.363281 14.390625 6.859375 13.550781 6.410156 12.6875 C 6.191406 12.269531 6.003906 11.808594 5.828125 11.390625 C 5.742188 11.226562 5.742188 10.984375 5.609375 10.902344 C 5.402344 11.199219 5.105469 11.457031 4.953125 11.820312 C 4.695312 12.402344 4.667969 13.121094 4.574219 13.863281 C 4.519531 13.875 4.542969 13.863281 4.519531 13.894531 C 4.085938 13.785156 3.933594 13.339844 3.773438 12.960938 C 3.363281 12 3.296875 10.460938 3.648438 9.351562 C 3.746094 9.066406 4.152344 8.175781 3.988281 7.90625 C 3.90625 7.648438 3.636719 7.5 3.484375 7.296875 C 3.308594 7.039062 3.121094 6.714844 2.996094 6.433594 C 2.671875 5.675781 2.507812 4.835938 2.152344 4.078125 C 1.988281 3.726562 1.703125 3.363281 1.472656 3.039062 C 1.214844 2.671875 0.929688 2.417969 0.726562 1.984375 C 0.65625 1.832031 0.5625 1.59375 0.671875 1.429688 C 0.699219 1.320312 0.753906 1.277344 0.859375 1.253906 C 1.039062 1.101562 1.542969 1.292969 1.71875 1.375 C 2.222656 1.578125 2.644531 1.765625 3.0625 2.050781 C 3.253906 2.1875 3.460938 2.441406 3.703125 2.511719 L 3.988281 2.511719 C 4.425781 2.605469 4.914062 2.542969 5.320312 2.664062 C 6.042969 2.894531 6.695312 3.230469 7.28125 3.59375 C 9.0625 4.71875 10.53125 6.3125 11.523438 8.21875 C 11.6875 8.53125 11.757812 8.8125 11.90625 9.136719 C 12.191406 9.800781 12.546875 10.476562 12.832031 11.125 C 13.117188 11.761719 13.390625 12.410156 13.796875 12.9375 C 14 13.222656 14.816406 13.371094 15.183594 13.519531 C 15.457031 13.640625 15.878906 13.75 16.121094 13.898438 C 16.585938 14.179688 17.046875 14.503906 17.484375 14.816406 C 17.699219 14.976562 18.378906 15.316406 18.421875 15.585938 Z M 4.550781 3.832031 C 4.363281 3.832031 4.175781 3.851562 3.992188 3.898438 L 3.992188 3.929688 L 4.019531 3.929688 C 4.128906 4.144531 4.320312 4.292969 4.457031 4.484375 L 4.769531 5.132812 L 4.796875 5.101562 C 4.984375 4.96875 5.082031 4.75 5.082031 4.425781 C 5 4.332031 4.988281 4.238281 4.917969 4.144531 C 4.835938 4.007812 4.660156 3.941406 4.550781 3.832031 Z M 4.550781 3.832031 "/>
</g>
</svg>
